<svg class="animated" id="freepik_stories-feedback" xmlns="http://www.w3.org/2000/svg" viewBox="0 0 500 500" version="1.1" xmlns:xlink="http://www.w3.org/1999/xlink" xmlns:svgjs="http://svgjs.com/svgjs"><style>svg#freepik_stories-feedback:not(.animated) .animable {opacity: 0;}svg#freepik_stories-feedback.animated #freepik--speech-bubble-2--inject-195 {animation: 3.7s 1 forwards cubic-bezier(.36,-0.01,.5,1.38) fadeIn;animation-delay: 0s;}svg#freepik_stories-feedback.animated #freepik--speech-bubble-1--inject-195 {animation: 1.8s 1 forwards cubic-bezier(.36,-0.01,.5,1.38) fadeIn;animation-delay: 0s;}            @keyframes fadeIn {                0% {                    opacity: 0;                }                100% {                    opacity: 1;                }            }        .animator-hidden { display: none; }</style><g id="freepik--background-complete--inject-195" class="animable animator-hidden" style="transform-origin: 250px 228.23px;"><rect x="416.78" y="398.49" width="33.12" height="0.25" style="fill: rgb(235, 235, 235); transform-origin: 433.34px 398.615px;" id="elhw733229b96" class="animable"></rect><rect x="322.53" y="401.21" width="8.69" height="0.25" style="fill: rgb(235, 235, 235); transform-origin: 326.875px 401.335px;" id="elt1v0b84sm3" class="animable"></rect><rect x="396.59" y="389.21" width="19.19" height="0.25" style="fill: rgb(235, 235, 235); transform-origin: 406.185px 389.335px;" id="eltvo9mfal05" class="animable"></rect><rect x="52.46" y="390.89" width="43.19" height="0.25" style="fill: rgb(235, 235, 235); transform-origin: 74.055px 391.015px;" id="eldlf7aq6j3to" class="animable"></rect><rect x="104.56" y="390.89" width="6.33" height="0.25" style="fill: rgb(235, 235, 235); transform-origin: 107.725px 391.015px;" id="elfr1mf3vz4jq" class="animable"></rect><rect x="131.47" y="395.11" width="93.68" height="0.25" style="fill: rgb(235, 235, 235); transform-origin: 178.31px 395.235px;" id="elrqqknfqowrm" class="animable"></rect><path d="M237,337.8H43.91a5.71,5.71,0,0,1-5.7-5.71V60.66A5.71,5.71,0,0,1,43.91,55H237a5.71,5.71,0,0,1,5.71,5.71V332.09A5.71,5.71,0,0,1,237,337.8ZM43.91,55.2a5.46,5.46,0,0,0-5.45,5.46V332.09a5.46,5.46,0,0,0,5.45,5.46H237a5.47,5.47,0,0,0,5.46-5.46V60.66A5.47,5.47,0,0,0,237,55.2Z" style="fill: rgb(235, 235, 235); transform-origin: 140.46px 196.4px;" id="elztdarmcuj5" class="animable"></path><path d="M453.31,337.8H260.21a5.72,5.72,0,0,1-5.71-5.71V60.66A5.72,5.72,0,0,1,260.21,55h193.1A5.71,5.71,0,0,1,459,60.66V332.09A5.71,5.71,0,0,1,453.31,337.8ZM260.21,55.2a5.47,5.47,0,0,0-5.46,5.46V332.09a5.47,5.47,0,0,0,5.46,5.46h193.1a5.47,5.47,0,0,0,5.46-5.46V60.66a5.47,5.47,0,0,0-5.46-5.46Z" style="fill: rgb(235, 235, 235); transform-origin: 356.75px 196.4px;" id="elnxmg68y0ap" class="animable"></path><rect y="382.4" width="500" height="0.25" style="fill: rgb(235, 235, 235); transform-origin: 250px 382.525px;" id="el9l2h0cl411o" class="animable"></rect><rect x="213.14" y="304.04" width="74.84" height="69.74" style="fill: rgb(230, 230, 230); transform-origin: 250.56px 338.91px;" id="eld5dmovwn0kk" class="animable"></rect><rect x="215.49" y="375.97" width="9.55" height="6.09" style="fill: rgb(224, 224, 224); transform-origin: 220.265px 379.015px;" id="el0mehrpmi86ed" class="animable"></rect><rect x="287.99" y="304.04" width="151.98" height="69.06" style="fill: rgb(230, 230, 230); transform-origin: 363.98px 338.57px;" id="el64f2hbzrt7n" class="animable"></rect><rect x="442.01" y="298.91" width="9.55" height="83.16" style="fill: rgb(230, 230, 230); transform-origin: 446.785px 340.49px;" id="elp9msyj212m" class="animable"></rect><rect x="295.39" y="309.54" width="65.88" height="60.34" style="fill: rgb(245, 245, 245); transform-origin: 328.33px 339.71px;" id="elit8nd4l7dt" class="animable"></rect><polygon points="306.52 369.88 324.11 369.88 330.45 309.54 312.86 309.54 306.52 369.88" style="fill: rgb(250, 250, 250); transform-origin: 318.485px 339.71px;" id="elyjayq5txj3" class="animable"></polygon><polygon points="328.61 369.88 332.11 369.88 338.45 309.54 334.95 309.54 328.61 369.88" style="fill: rgb(250, 250, 250); transform-origin: 333.53px 339.71px;" id="elfg4wxyyg2f" class="animable"></polygon><rect x="220.27" y="309.54" width="65.88" height="60.34" style="fill: rgb(245, 245, 245); transform-origin: 253.21px 339.71px;" id="ely9g3ndcmhd" class="animable"></rect><rect x="371.24" y="309.54" width="65.88" height="60.34" style="fill: rgb(245, 245, 245); transform-origin: 404.18px 339.71px;" id="eli170kj0yfp" class="animable"></rect><path d="M439.58,298.91H210.42v83.16h5.1v-4.66H437v4.66h5.1V298.91Zm-224.06,7.52h70v28.89h-70Zm0,63.45V339.62h70v30.26Zm145.76,0H290.62V306.43h70.66Zm75.75,0H366.37V339.62H437Zm0-34.56H366.37V306.43H437Z" style="fill: rgb(240, 240, 240); transform-origin: 326.26px 340.49px;" id="elkkrps3whrc" class="animable"></path><circle cx="251.23" cy="316.7" r="3.06" style="fill: rgb(235, 235, 235); transform-origin: 251.23px 316.7px;" id="elptzn4epntp" class="animable"></circle><path d="M251.23,319.76a3.05,3.05,0,0,1-2.77-1.79,3.06,3.06,0,1,0,5.55,0A3.06,3.06,0,0,1,251.23,319.76Z" style="fill: rgb(224, 224, 224); transform-origin: 251.235px 320.145px;" id="elcxq39f1f91b" class="animable"></path><path d="M254.29,352.26a3.06,3.06,0,1,1-3.06-3.06A3.06,3.06,0,0,1,254.29,352.26Z" style="fill: rgb(235, 235, 235); transform-origin: 251.23px 352.26px;" id="elvahcg7f38e" class="animable"></path><path d="M251.23,355.32a3,3,0,0,1-2.77-1.79,3.06,3.06,0,1,0,5.55,0A3,3,0,0,1,251.23,355.32Z" style="fill: rgb(224, 224, 224); transform-origin: 251.235px 355.705px;" id="el3yj5nvdczrw" class="animable"></path><circle cx="405.67" cy="316.7" r="3.06" style="fill: rgb(235, 235, 235); transform-origin: 405.67px 316.7px;" id="el7sp53hil6sg" class="animable"></circle><path d="M405.67,319.76a3.07,3.07,0,0,1-2.78-1.79,3,3,0,0,0-.28,1.27,3.06,3.06,0,1,0,5.83-1.27A3.05,3.05,0,0,1,405.67,319.76Z" style="fill: rgb(224, 224, 224); transform-origin: 405.67px 320.15px;" id="el1knvg92yyhb" class="animable"></path><path d="M355.06,341.48a3.06,3.06,0,1,1-3.06-3.07A3.06,3.06,0,0,1,355.06,341.48Z" style="fill: rgb(235, 235, 235); transform-origin: 352px 341.47px;" id="ely8dc5i0qbde" class="animable"></path><path d="M352,344.54a3.07,3.07,0,0,1-2.78-1.79,3,3,0,0,0-.28,1.27,3.06,3.06,0,1,0,5.83-1.27A3.05,3.05,0,0,1,352,344.54Z" style="fill: rgb(224, 224, 224); transform-origin: 352px 344.93px;" id="el21r5017b8j5" class="animable"></path><path d="M408.73,352.26a3.06,3.06,0,1,1-3.06-3.06A3.06,3.06,0,0,1,408.73,352.26Z" style="fill: rgb(235, 235, 235); transform-origin: 405.67px 352.26px;" id="elf47iei1ggjd" class="animable"></path><path d="M405.67,355.32a3.05,3.05,0,0,1-2.78-1.79,3.07,3.07,0,1,0,5.55,0A3,3,0,0,1,405.67,355.32Z" style="fill: rgb(224, 224, 224); transform-origin: 405.665px 355.722px;" id="elrrjqskti6" class="animable"></path><path d="M397.15,209.71h0a1.3,1.3,0,0,1,1.3,1.3v82.33a1.3,1.3,0,0,1-1.3,1.3h0a0,0,0,0,1,0,0V209.71A0,0,0,0,1,397.15,209.71Z" style="fill: rgb(224, 224, 224); transform-origin: 397.8px 252.175px;" id="el8xp0qss79rm" class="animable"></path><rect x="254.9" y="209.71" width="142.26" height="84.93" style="fill: rgb(235, 235, 235); transform-origin: 326.03px 252.175px;" id="elxxb210xbz2h" class="animable"></rect><rect x="257.24" y="212.05" width="137.57" height="80.25" style="fill: rgb(224, 224, 224); transform-origin: 326.025px 252.175px;" id="el491j9pjys1j" class="animable"></rect><g id="elavjzo9yp9nn"><polygon points="311.61 292.3 332.39 292.3 345.1 212.05 324.32 212.05 311.61 292.3" style="fill: rgb(250, 250, 250); opacity: 0.1; transform-origin: 328.355px 252.175px;" class="animable" id="elrg90jnljh78"></polygon></g><g id="ela7hx04q3l7v"><polygon points="336.09 292.3 340.75 292.3 353.46 212.05 348.8 212.05 336.09 292.3" style="fill: rgb(250, 250, 250); opacity: 0.2; transform-origin: 344.775px 252.175px;" class="animable" id="elwd77hrqvhmf"></polygon></g><path d="M344.05,294.64v3h4.23a1.88,1.88,0,0,0,1.88-1.89v-1.15Z" style="fill: rgb(224, 224, 224); transform-origin: 347.105px 296.12px;" id="elg9pwut5gvc7" class="animable"></path><path d="M344.47,297.68H306.23a3,3,0,0,1-3-3h44.32A3,3,0,0,1,344.47,297.68Z" style="fill: rgb(240, 240, 240); transform-origin: 325.39px 296.181px;" id="elv0semftxkn" class="animable"></path><polygon points="93.38 169.63 89.12 169.61 87.95 168.1 94.57 168.15 93.38 169.63" style="fill: #096191; transform-origin: 91.26px 168.865px;" id="elwumvchhavkb" class="animable"></polygon><g id="elj8h2r9yy9uj"><polygon points="93.38 169.63 89.12 169.61 87.95 168.1 94.57 168.15 93.38 169.63" style="fill: rgb(255, 255, 255); opacity: 0.5; transform-origin: 91.26px 168.865px;" class="animable" id="elg2e0psdyhbs"></polygon></g><path d="M100.66,150.52a8.84,8.84,0,0,1-3.16,6.68,5.87,5.87,0,0,0-2.15,4.4v.69l-8.11-.06v-.68a5.84,5.84,0,0,0-2.08-4.42,8.85,8.85,0,0,1-3.08-6.76,9.3,9.3,0,0,1,18.59.15Z" style="fill: rgb(235, 235, 235); transform-origin: 91.3749px 151.865px;" id="elodrdlumtv8" class="animable"></path><path d="M90,162.28l-1.5-7.36a.23.23,0,0,1,.18-.26h0a.23.23,0,0,1,.27.18l1.5,7.35Z" style="fill: #096191; transform-origin: 89.4737px 158.468px;" id="elp3amaghdj8p" class="animable"></path><path d="M92.63,162.3l-.45-.09,1.6-7.33a.22.22,0,0,1,.27-.17h0a.21.21,0,0,1,.17.26Z" style="fill: #096191; transform-origin: 93.2034px 158.502px;" id="elc26i0f0jtr" class="animable"></path><polygon points="92.26 157.98 91.35 156.36 90.42 157.97 88.71 156.03 89.06 155.74 90.34 157.2 91.36 155.45 92.35 157.21 93.66 155.77 94 156.07 92.26 157.98" style="fill: #096191; transform-origin: 91.355px 156.715px;" id="el9vmt6iu2mhs" class="animable"></polygon><path d="M96,163.43a1,1,0,0,1-1,1h-1l-.23,0-6.06,0a1,1,0,1,1,0-2h1.07l.21,0h0l6,0A1,1,0,0,1,96,163.43Z" style="fill: #096191; transform-origin: 91.355px 163.43px;" id="elhovw1g3f2ll" class="animable"></path><path d="M95.64,165.35a1,1,0,0,1-1,1h-1a.83.83,0,0,1-.22,0l-5.63,0a1,1,0,0,1-1-1,1,1,0,0,1,.94-1h1l.2,0h0l5.63,0A1,1,0,0,1,95.64,165.35Z" style="fill: #096191; transform-origin: 91.215px 165.352px;" id="elp40l4t6om2k" class="animable"></path><path d="M95.26,167.27a.94.94,0,0,1-.89,1h-.9a.64.64,0,0,1-.2,0l-5.21-.05a.94.94,0,0,1-.88-1,.93.93,0,0,1,.87-1H89l.18,0h0l5.21,0A1,1,0,0,1,95.26,167.27Z" style="fill: #096191; transform-origin: 91.2196px 167.249px;" id="el9y6qh9s69kn" class="animable"></path><polygon points="87.76 168.77 87.77 168.22 94.72 168.26 94.72 168.8 87.76 168.77" style="fill: #096191; transform-origin: 91.24px 168.51px;" id="ell66ysp3c16" class="animable"></polygon><rect x="87.23" y="161.97" width="8.12" height="0.54" style="fill: #096191; transform-origin: 91.29px 162.24px;" id="el06382c5ya6e8" class="animable"></rect><g id="ela2qz7bxui45"><g style="opacity: 0.4; transform-origin: 87.3795px 146.644px;" class="animable" id="el8081u8eg64t"><path d="M83.14,148.81A3.12,3.12,0,0,0,83,150.2h0a.61.61,0,0,0,1.16.06,6.33,6.33,0,0,1,4-3.74c1.41-.42,3.16-.47,3.6-2.17a1.59,1.59,0,0,0-.11-.91v0C90.55,141.08,84.27,144.21,83.14,148.81Z" style="fill: rgb(255, 255, 255); transform-origin: 87.3795px 146.644px;" id="elwmtstcv1t5o" class="animable"></path></g></g><g id="el0vcmcwleteq"><path d="M92.76,144a1.35,1.35,0,0,0,.38,1.35,1.87,1.87,0,0,0,1.13.35,1.51,1.51,0,0,0,1.16-.35,1.23,1.23,0,0,0,0-1.38C94.79,142.56,93.2,142.24,92.76,144Z" style="fill: rgb(255, 255, 255); opacity: 0.4; transform-origin: 94.1761px 144.252px;" class="animable" id="elzgasjo85emn"></path></g><path d="M94.58,171.93v2.51a26.11,26.11,0,0,1-3.21.19,26.39,26.39,0,0,1-3.22-.19v-2.51Z" style="fill: rgb(38, 50, 56); transform-origin: 91.365px 173.28px;" id="elzck95oeabzn" class="animable"></path><path d="M91.37,380.31a2,2,0,0,1-2-2V198.74a2,2,0,1,1,3.92,0V378.35A2,2,0,0,1,91.37,380.31Z" style="fill: rgb(224, 224, 224); transform-origin: 91.33px 288.326px;" id="eli7p65gmj3zp" class="animable"></path><path d="M118.33,148.49a26.13,26.13,0,0,1-16.34,24,11.64,11.64,0,0,0-7.41,10.65v15.57H88.15V183.17a11.64,11.64,0,0,0-7.41-10.65,26.15,26.15,0,0,1-16.34-24Z" style="fill: rgb(224, 224, 224); transform-origin: 91.365px 173.6px;" id="el7p414eaco4u" class="animable"></path><path d="M61.19,381l.21.17-.52-.08Z" style="fill: #096191; transform-origin: 61.14px 381.085px;" id="els8ufg94v2sd" class="animable"></path><path d="M122.15,381.07l-.51.07a1.75,1.75,0,0,0,.2-.16Z" style="fill: #096191; transform-origin: 121.895px 381.06px;" id="el738xnv6kxy" class="animable"></path><path d="M122.15,380.39a.81.81,0,0,1-.31.59,1.75,1.75,0,0,1-.2.16c-2.61,1.93-15.11,1.21-30.13,1.21s-27.47.73-30.11-1.2l-.21-.17a.84.84,0,0,1-.31-.59c0-1,20.31-5.24,26.64-7.08l1.19-.35h5.48l1.26.37C101.73,375.15,122.15,379.34,122.15,380.39Z" style="fill: rgb(224, 224, 224); transform-origin: 91.515px 377.723px;" id="elmz290e9rada" class="animable"></path></g><g id="freepik--Shadow--inject-195" class="animable animator-hidden" style="transform-origin: 250px 415.69px;"><ellipse id="freepik--path--inject-195" cx="250" cy="415.69" rx="193.89" ry="11.32" style="fill: rgb(245, 245, 245); transform-origin: 250px 415.69px;" class="animable"></ellipse></g><g id="freepik--Star--inject-195" class="animable" style="transform-origin: 248.745px 236.658px;"><path d="M385.11,211l-48.34,43.42-14.94,13.42a5.86,5.86,0,0,0-2,4.78l1.09,22.93,3,62.73c.37,4.41-4.56,7.78-8.34,5.69l-17.28-9.6-25.27-14L254.42,330,273,340.29l25.31,13.94,3.63,2c3.78,2.09,8.71-1.28,8.34-5.68l-1.89-22.48h0l-4.85-57.77a5.83,5.83,0,0,1,2-4.79l41.24-37,22-19.79c3.47-3.12,2.19-8.57-2.19-9.21l-8.22-1.21-24.5-3.61-46.83-6.89a4.79,4.79,0,0,1-3.81-3L273.6,161h0l-4.38-10.78-6-14.8h0l-2.38-5.87h0l-3.92-9.67-3.28-8.08a4.72,4.72,0,0,0-3-2.78L265,111.13l2.11.31.47.45,2.3,2.23L277,131.6l1.34,3.3,2.72,6.7,18.5,45.54a4.82,4.82,0,0,0,3.81,3l30.56,4.5,24.5,3.6,24.5,3.61C387.3,202.45,388.59,207.9,385.11,211Z" style="fill: #096191; transform-origin: 318.873px 236.813px;" id="elccxxxvgtw0f" class="animable"></path><g id="ellodk6nzfd3"><path d="M385.11,211l-48.34,43.42-14.94,13.42a5.86,5.86,0,0,0-2,4.78l1.09,22.93,3,62.73c.37,4.41-4.56,7.78-8.34,5.69l-17.28-9.6-25.27-14L254.42,330,273,340.29l25.31,13.94,3.63,2c3.78,2.09,8.71-1.28,8.34-5.68l-1.89-22.48h0l-4.85-57.77a5.83,5.83,0,0,1,2-4.79l41.24-37,22-19.79c3.47-3.12,2.19-8.57-2.19-9.21l-8.22-1.21-24.5-3.61-46.83-6.89a4.79,4.79,0,0,1-3.81-3L273.6,161h0l-4.38-10.78-6-14.8h0l-2.38-5.87h0l-3.92-9.67-3.28-8.08a4.72,4.72,0,0,0-3-2.78L265,111.13l2.11.31.47.45,2.3,2.23L277,131.6l1.34,3.3,2.72,6.7,18.5,45.54a4.82,4.82,0,0,0,3.81,3l30.56,4.5,24.5,3.6,24.5,3.61C387.3,202.45,388.59,207.9,385.11,211Z" style="opacity: 0.5; transform-origin: 318.873px 236.813px;" class="animable" id="elfs5ou0vu2ai"></path></g><polygon points="267.14 111.44 267.14 111.44 267.14 111.44 267.14 111.44" style="fill: rgb(38, 50, 56); transform-origin: 267.14px 111.44px;" id="elfddo0kxwpi9" class="animable"></polygon><path d="M269.91,114.12l-2.77-2.68A4.65,4.65,0,0,1,269.91,114.12Z" style="fill: rgb(38, 50, 56); transform-origin: 268.525px 112.78px;" id="elv8cujbnv66e" class="animable"></path><path d="M265,111.13a5.33,5.33,0,0,1,2.11.3Z" style="fill: rgb(38, 50, 56); transform-origin: 266.055px 111.275px;" id="elpn3yxut151" class="animable"></path><path d="M243,323.75l-39.81,20h0l-18.85,9.47-11.76,5.91-.24.11a7.75,7.75,0,0,1-5.37,0l-.31.16-16.26-2.51h0a5.64,5.64,0,0,0,2.38-.63l9.3-4.67,16.39-8.23L187,339l4.13-2.07,18.19-9.15,18.84-9.46a5.39,5.39,0,0,1,5,0Z" style="fill: #096191; transform-origin: 196.7px 338.713px;" id="elekztm21rb3" class="animable"></path><g id="elfbwshoso9te"><path d="M243,323.75l-39.81,20h0l-18.85,9.47-11.76,5.91-.24.11a7.75,7.75,0,0,1-5.37,0l-.31.16-16.26-2.51h0a5.64,5.64,0,0,0,2.38-.63l9.3-4.67,16.39-8.23L187,339l4.13-2.07,18.19-9.15,18.84-9.46a5.39,5.39,0,0,1,5,0Z" style="opacity: 0.5; transform-origin: 196.7px 338.713px;" class="animable" id="el3za4juaxg4a"></path></g><path d="M263.2,135.4l-7.33-13.78L249,108.76h0l1.54.23a4.72,4.72,0,0,1,3,2.78l3.28,8.08Z" style="fill: rgb(38, 50, 56); transform-origin: 256.1px 122.08px;" id="elpk30v1cp2hg" class="animable"></path><path d="M187,339,162.1,351.56l-9.3,4.67a5.64,5.64,0,0,1-2.38.63L167,326.13l1.43.92Z" style="fill: rgb(38, 50, 56); transform-origin: 168.71px 341.495px;" id="el21snfq4be2e" class="animable"></path><path d="M368.82,208.67l-22,19.79h0l-41.24,37a5.83,5.83,0,0,0-2,4.79l4.85,57.77h0l1.89,22.48c.37,4.4-4.56,7.77-8.34,5.68l-3.63-2L273,340.29,254.42,330l-.37-.21-11-6.07-9.8-5.4a5.39,5.39,0,0,0-5,0l-18.84,9.46L191.16,337,187,339l-8.54,4.3-16.39,8.23-9.3,4.67a5.64,5.64,0,0,1-2.38.63,4.91,4.91,0,0,1-5-6.31l1.25-4.83,19.53-75.43a5.06,5.06,0,0,0-1.13-4.79l-53.34-56.83c-2.92-3.12-.68-8.57,3.8-9.21l81.61-11.71a6.06,6.06,0,0,0,4.33-3l42.42-73a6,6,0,0,1,1.17-1.44,5.79,5.79,0,0,1,2.72-1.43,5.55,5.55,0,0,1,1.21-.14h0a4.45,4.45,0,0,1,1,.11,4.21,4.21,0,0,1,.51.12,4.72,4.72,0,0,1,3,2.78l3.28,8.08,3.92,9.68,2.38,5.87h0l6,14.8L273.6,161h0l9.67,23.8a4.79,4.79,0,0,0,3.81,3l46.83,6.89,24.5,3.61,8.22,1.21C371,200.1,372.29,205.55,368.82,208.67Z" style="fill: #096191; transform-origin: 240.596px 232.774px;" id="eljijgrggunl" class="animable"></path><g id="els1ywcqqcri"><path d="M260.82,129.53l-.31.81-79,205.13-3,7.86-16.39,8.23-9.3,4.67a5.64,5.64,0,0,1-2.38.63,4.91,4.91,0,0,1-5-6.31l1.25-4.83L245.1,110.33a5.79,5.79,0,0,1,2.72-1.43l1.28,0h1a4.21,4.21,0,0,1,.51.12,4.72,4.72,0,0,1,3,2.78l3.28,8.08Z" style="fill: rgb(255, 255, 255); opacity: 0.4; transform-origin: 203.027px 232.884px;" class="animable" id="el1kzc679v3gr"></path></g><g id="el44wxqhll4xp"><polygon points="273.6 160.98 273.6 160.99 209.35 327.81 191.16 336.96 269.22 150.2 273.6 160.98" style="fill: rgb(255, 255, 255); opacity: 0.2; transform-origin: 232.38px 243.58px;" class="animable" id="elo15tzaf4c8i"></polygon></g><g id="el0znj37nze27"><path d="M358.43,198.2l0,.05-11.63,30.21h0l-41.24,37a5.83,5.83,0,0,0-2,4.79l4.85,57.77h0l-10.08,26.16-.06.16-25.27-14,0-.06,60.88-145.65,0,0Z" style="fill: rgb(255, 255, 255); opacity: 0.3; transform-origin: 315.715px 274.485px;" class="animable" id="elmqoaohtik0e"></path></g></g><g id="freepik--speech-bubble-2--inject-195" class="animable" style="transform-origin: 388.88px 274.308px;"><path d="M381.69,297.65c-.23-3.32-7.16-4.51-10.24-5.32a16.85,16.85,0,0,1-1.88-.55c-12.33-4-20.26-12-20.69-20.91-.67-14,16.73-26.27,38.78-27.33S428.23,253,428.9,267s-16.73,26.26-38.8,27.32a1.37,1.37,0,0,0-1.16,1.34c-.63,5-3.58,6.42-6,7.57l-.31.15A35.63,35.63,0,0,1,378,305a.62.62,0,0,1-.53-1.1C379.71,302.36,381.87,300.2,381.69,297.65Z" style="fill: rgb(255, 255, 255); transform-origin: 388.89px 274.245px;" id="elj99kvq4gp4k" class="animable"></path><path d="M377.8,305.53a1.12,1.12,0,0,1-.62-2c1.92-1.32,4.18-3.4,4-5.81h0c-.17-2.52-5.39-3.78-8.51-4.53l-1.36-.33c-.9-.24-1.57-.42-1.94-.57-12.5-4-20.55-12.2-21-21.36-.68-14.28,16.93-26.77,39.26-27.85s41.07,9.67,41.76,24-16.93,26.76-39.28,27.84c-.53,0-.65.7-.68.9-.66,5.26-3.89,6.82-6.24,8l-.32.15a33.19,33.19,0,0,1-4.75,1.64A1,1,0,0,1,377.8,305.53ZM390.72,244c-1,0-2,0-3,.07-21.78,1.05-39,13.07-38.31,26.8.42,8.73,8.22,16.57,20.34,20.47.35.14,1,.32,1.79.52l1.41.35c3.6.87,9,2.18,9.27,5.43h0c.16,2.31-1.34,4.57-4.45,6.7a.11.11,0,0,0,0,.15.11.11,0,0,0,.15.06,33.16,33.16,0,0,0,4.6-1.58l.31-.15c2.39-1.16,5.09-2.46,5.69-7.18a1.82,1.82,0,0,1,1.63-1.78c21.79-1.05,39-13.07,38.32-26.79C427.77,254,411.14,244,390.72,244Z" style="fill: #096191; transform-origin: 388.88px 274.308px;" id="elssm53oeqe1j" class="animable"></path><path d="M379,264.16h-2.93a2.67,2.67,0,0,0-2.64,2.51l-.71,13.52a2.36,2.36,0,0,0,2.37,2.51H378a2.67,2.67,0,0,0,2.64-2.51l.71-13.52A2.36,2.36,0,0,0,379,264.16Z" style="fill: #096191; transform-origin: 377.035px 273.43px;" id="elwak5o8ce7r8" class="animable"></path><g id="elk6rpvcerj6h"><path d="M379,264.16h-2.93a2.67,2.67,0,0,0-2.64,2.51l-.71,13.52a2.36,2.36,0,0,0,2.37,2.51H378a2.67,2.67,0,0,0,2.64-2.51l.71-13.52A2.36,2.36,0,0,0,379,264.16Z" style="fill: rgb(255, 255, 255); opacity: 0.5; transform-origin: 377.035px 273.43px;" class="animable" id="elu9c4abdt3l"></path></g><path d="M402.15,264.16h-8.57l.74-3.48a26,26,0,0,0,.71-5.57,3.39,3.39,0,0,0-1.46-2.42,6.3,6.3,0,0,0-3.89-.68l-.79.74c-.08,1.5-.59,5.47-1.53,6.65l-4.08,5.15a4.23,4.23,0,0,0-.92,2.41l-.67,12.65a2.92,2.92,0,0,0,2.94,3.09h12a3.82,3.82,0,0,0,2.8-1.27l1.13-1.26a3.7,3.7,0,0,0,.88-1.7l2.63-11.71Z" style="fill: #096191; transform-origin: 392.877px 267.322px;" id="el7pemyriq6xy" class="animable"></path></g><g id="freepik--speech-bubble-1--inject-195" class="animable" style="transform-origin: 151.32px 123.985px;"><path d="M194.43,98.66v39.07a3.69,3.69,0,0,1-3.69,3.69h-58l-11.51,11.17a1.56,1.56,0,0,1-1.21.44c-1.51,0-1.7-1.23-1.7-2.74l.41-8.87h-6.9a3.69,3.69,0,0,1-3.69-3.69V98.65A3.69,3.69,0,0,1,111.86,95h78.89A3.68,3.68,0,0,1,194.43,98.66Z" style="fill: rgb(255, 255, 255); transform-origin: 151.285px 124.017px;" id="el96hra9m1hae" class="animable"></path><path d="M120.05,153.53c-2.2,0-2.2-2.19-2.2-3.24l.39-8.37h-6.38a4.2,4.2,0,0,1-4.19-4.19V98.65a4.21,4.21,0,0,1,1.24-3,4.13,4.13,0,0,1,3-1.21h78.88a4.18,4.18,0,0,1,4.18,4.17v39.07a4.2,4.2,0,0,1-4.2,4.19H133l-11.36,11A2.07,2.07,0,0,1,120.05,153.53Zm-8.2-58a3.18,3.18,0,0,0-3.18,3.17v39.07a3.2,3.2,0,0,0,3.19,3.19h7.42l-.43,9.39c0,1.88.39,2.22,1.2,2.22a1.09,1.09,0,0,0,.91-.34l11.6-11.27h58.17a3.2,3.2,0,0,0,3.2-3.19V98.66a3.18,3.18,0,0,0-3.18-3.17h-78.9Z" style="fill: #096191; transform-origin: 151.32px 123.985px;" id="el8cwwiiy7pf5" class="animable"></path><path d="M129.15,104.88l-2.1,1.88-.64.58a.24.24,0,0,0-.09.21l.05,1,.12,2.72a.25.25,0,0,1-.36.24l-.74-.41-1.1-.61-.8-.45.8.45,1.1.6.16.09a.26.26,0,0,0,.36-.25l-.09-1h0l-.21-2.5a.27.27,0,0,1,.09-.21l1.79-1.61,1-.85a.23.23,0,0,0-.09-.4l-.36,0-1.06-.16-2-.3a.18.18,0,0,1-.16-.13l-.42-1h0l-.19-.46-.26-.65h0l-.11-.25h0l-.17-.42-.14-.35a.2.2,0,0,0-.13-.12l.63.09.09,0,0,0,.1.09.3.76.06.14.12.29.8,2a.22.22,0,0,0,.17.12l1.32.2,1.06.15,1.06.16A.23.23,0,0,1,129.15,104.88Z" style="fill: #096191; transform-origin: 126.31px 106.028px;" id="el2b7vq5jkwya" class="animable"></path><g id="elyau6kfwcw9"><path d="M129.15,104.88l-2.1,1.88-.64.58a.24.24,0,0,0-.09.21l.05,1,.12,2.72a.25.25,0,0,1-.36.24l-.74-.41-1.1-.61-.8-.45.8.45,1.1.6.16.09a.26.26,0,0,0,.36-.25l-.09-1h0l-.21-2.5a.27.27,0,0,1,.09-.21l1.79-1.61,1-.85a.23.23,0,0,0-.09-.4l-.36,0-1.06-.16-2-.3a.18.18,0,0,1-.16-.13l-.42-1h0l-.19-.46-.26-.65h0l-.11-.25h0l-.17-.42-.14-.35a.2.2,0,0,0-.13-.12l.63.09.09,0,0,0,.1.09.3.76.06.14.12.29.8,2a.22.22,0,0,0,.17.12l1.32.2,1.06.15,1.06.16A.23.23,0,0,1,129.15,104.88Z" style="opacity: 0.5; transform-origin: 126.31px 106.028px;" class="animable" id="elgpmi7ntdb3i"></path></g><path d="M124.16,100.68l-.12-.11A.21.21,0,0,1,124.16,100.68Z" style="fill: rgb(38, 50, 56); transform-origin: 124.1px 100.625px;" id="elpwigcnwl84b" class="animable"></path><path d="M124,100.55l.09,0Z" style="fill: rgb(38, 50, 56); transform-origin: 124.045px 100.55px;" id="elv6j7ygivg2" class="animable"></path><path d="M123,109.76l-1.72.87h0l-.82.41-.51.25h0a.36.36,0,0,1-.23,0h0l-.71-.11h0l.11,0,.4-.21.71-.35.37-.19.18-.09.78-.39.82-.41a.22.22,0,0,1,.22,0Z" style="fill: #096191; transform-origin: 121.005px 110.41px;" id="elo23okfroz3" class="animable"></path><g id="elfii8ejz3yg"><path d="M123,109.76l-1.72.87h0l-.82.41-.51.25h0a.36.36,0,0,1-.23,0h0l-.71-.11h0l.11,0,.4-.21.71-.35.37-.19.18-.09.78-.39.82-.41a.22.22,0,0,1,.22,0Z" style="opacity: 0.5; transform-origin: 121.005px 110.41px;" class="animable" id="el1h22af1f2n1h"></path></g><path d="M123.87,101.6l-.32-.59-.3-.56h.07a.2.2,0,0,1,.13.12l.14.35Z" style="fill: rgb(38, 50, 56); transform-origin: 123.56px 101.025px;" id="el9gmbsrgu7ud" class="animable"></path><path d="M120.57,110.42l-1.08.54-.4.21-.11,0,.72-1.33.06,0Z" style="fill: rgb(38, 50, 56); transform-origin: 119.775px 110.505px;" id="el7tgc12douh7" class="animable"></path><path d="M128.44,104.78l-1,.85h0l-1.79,1.61a.27.27,0,0,0-.09.21l.21,2.5h0l.09,1a.26.26,0,0,1-.36.25l-.16-.09-1.1-.6-.8-.45h0l-.48-.26-.42-.23a.22.22,0,0,0-.22,0l-.82.41-.78.39-.18.09-.37.19-.71.35-.4.21-.11,0a.21.21,0,0,1-.21-.27l0-.21.85-3.26a.22.22,0,0,0,0-.21l-2.31-2.46a.25.25,0,0,1,.16-.4l3.54-.51a.28.28,0,0,0,.19-.13l1.83-3.16,0-.06a.34.34,0,0,1,.12-.06h.12a.2.2,0,0,1,.13.12l.14.35.17.42.11.25h0l.26.65.19.46h0l.42,1a.18.18,0,0,0,.16.13l2,.3,1.06.16.36,0A.23.23,0,0,1,128.44,104.78Z" style="fill: #096191; transform-origin: 122.909px 105.85px;" id="elx95v1nv8l3n" class="animable"></path><g id="elpfmnos5jja"><path d="M123.76,101.35v0l-3.42,8.88-.13.34-.71.35-.4.21-.11,0a.21.21,0,0,1-.21-.27l0-.21,4.26-10.19a.34.34,0,0,1,.12-.06h.12a.2.2,0,0,1,.13.12l.14.35Z" style="fill: rgb(255, 255, 255); opacity: 0.4; transform-origin: 121.266px 105.765px;" class="animable" id="el1ysbrckjvnu"></path></g><g id="elu03i4bbe6n"><polygon points="124.32 102.71 124.32 102.71 121.53 109.94 120.75 110.33 124.13 102.25 124.32 102.71" style="fill: rgb(255, 255, 255); opacity: 0.2; transform-origin: 122.535px 106.29px;" class="animable" id="elnqe9tyxwtho"></polygon></g><g id="elt2ic1rsjs0c"><path d="M128,104.32h0l-.5,1.3h0l-1.79,1.61a.27.27,0,0,0-.09.21l.21,2.5h0l-.43,1.13h0l-1.1-.61h0l2.64-6.31h0Z" style="fill: rgb(255, 255, 255); opacity: 0.3; transform-origin: 126.15px 107.61px;" class="animable" id="elzv3kb1ai5y"></path></g><path d="M143.17,104.88l-2.09,1.88-.65.58a.24.24,0,0,0-.08.21l.05,1,.12,2.72a.25.25,0,0,1-.36.24l-.75-.41-1.09-.61-.8-.45.8.45,1.1.6.15.09a.26.26,0,0,0,.37-.25l-.09-1h0l-.21-2.5a.27.27,0,0,1,.09-.21l1.78-1.61,1-.85a.23.23,0,0,0-.1-.4l-.35,0-1.06-.16-2-.3a.21.21,0,0,1-.17-.13l-.41-1h0l-.19-.46-.26-.65h0l-.11-.25h0l-.17-.42-.14-.35a.2.2,0,0,0-.13-.12l.62.09.1,0,0,0,.1.09.3.76.06.14.12.29.8,2a.22.22,0,0,0,.16.12l1.33.2,1.06.15,1.06.16A.22.22,0,0,1,143.17,104.88Z" style="fill: #096191; transform-origin: 140.333px 106.028px;" id="elriyrahoa4zc" class="animable"></path><g id="elzhkhuivhrsk"><path d="M143.17,104.88l-2.09,1.88-.65.58a.24.24,0,0,0-.08.21l.05,1,.12,2.72a.25.25,0,0,1-.36.24l-.75-.41-1.09-.61-.8-.45.8.45,1.1.6.15.09a.26.26,0,0,0,.37-.25l-.09-1h0l-.21-2.5a.27.27,0,0,1,.09-.21l1.78-1.61,1-.85a.23.23,0,0,0-.1-.4l-.35,0-1.06-.16-2-.3a.21.21,0,0,1-.17-.13l-.41-1h0l-.19-.46-.26-.65h0l-.11-.25h0l-.17-.42-.14-.35a.2.2,0,0,0-.13-.12l.62.09.1,0,0,0,.1.09.3.76.06.14.12.29.8,2a.22.22,0,0,0,.16.12l1.33.2,1.06.15,1.06.16A.22.22,0,0,1,143.17,104.88Z" style="opacity: 0.5; transform-origin: 140.333px 106.028px;" class="animable" id="eluwhzhc8w0t"></path></g><path d="M138.19,100.68l-.12-.11A.21.21,0,0,1,138.19,100.68Z" style="fill: rgb(38, 50, 56); transform-origin: 138.13px 100.625px;" id="el5d7ruksjd7" class="animable"></path><path d="M138,100.55l.1,0Z" style="fill: rgb(38, 50, 56); transform-origin: 138.05px 100.55px;" id="elrkmze3dxj2" class="animable"></path><path d="M137,109.76l-1.72.87h0l-.82.41-.51.25h0a.36.36,0,0,1-.23,0h0l-.71-.11h0l.1,0,.41-.21.71-.35.37-.19.18-.09.78-.39.82-.41a.22.22,0,0,1,.22,0Z" style="fill: #096191; transform-origin: 135.005px 110.41px;" id="elu3tu3qvxb47" class="animable"></path><g id="el7xuqo9fmeos"><path d="M137,109.76l-1.72.87h0l-.82.41-.51.25h0a.36.36,0,0,1-.23,0h0l-.71-.11h0l.1,0,.41-.21.71-.35.37-.19.18-.09.78-.39.82-.41a.22.22,0,0,1,.22,0Z" style="opacity: 0.5; transform-origin: 135.005px 110.41px;" class="animable" id="el4a6qmix6jml"></path></g><path d="M137.9,101.6l-.32-.59-.3-.56h.07a.2.2,0,0,1,.13.12l.14.35Z" style="fill: rgb(38, 50, 56); transform-origin: 137.59px 101.025px;" id="ellid0zz7m0u" class="animable"></path><path d="M134.6,110.42l-1.08.54-.41.21-.1,0,.72-1.33.06,0Z" style="fill: rgb(38, 50, 56); transform-origin: 133.805px 110.505px;" id="elussj1sqqi5m" class="animable"></path><path d="M142.47,104.78l-1,.85h0l-1.78,1.61a.27.27,0,0,0-.09.21l.21,2.5h0l.09,1a.26.26,0,0,1-.37.25l-.15-.09-1.1-.6-.8-.45h0l-.48-.26-.42-.23a.22.22,0,0,0-.22,0l-.82.41-.78.39-.18.09-.37.19-.71.35-.41.21-.1,0a.21.21,0,0,1-.21-.27l0-.21.85-3.26a.22.22,0,0,0,0-.21l-2.31-2.46a.25.25,0,0,1,.16-.4l3.54-.51a.26.26,0,0,0,.18-.13l1.84-3.16.05-.06a.34.34,0,0,1,.12-.06h.12a.2.2,0,0,1,.13.12l.14.35.17.42.11.25h0l.26.65.19.46h0l.41,1a.21.21,0,0,0,.17.13l2,.3,1.06.16.35,0A.23.23,0,0,1,142.47,104.78Z" style="fill: #096191; transform-origin: 136.952px 105.852px;" id="el725nspvx7z4" class="animable"></path><g id="el3nb7q9wo1l4"><path d="M137.79,101.35v0l-3.42,8.88-.13.34-.71.35-.41.21-.1,0a.21.21,0,0,1-.21-.27l0-.21,4.26-10.19a.34.34,0,0,1,.12-.06h.12a.2.2,0,0,1,.13.12l.14.35Z" style="fill: rgb(255, 255, 255); opacity: 0.4; transform-origin: 135.296px 105.765px;" class="animable" id="elkizmgudj85k"></path></g><g id="elvyfhdftjdfq"><polygon points="138.35 102.71 138.35 102.71 135.56 109.94 134.78 110.33 138.16 102.25 138.35 102.71" style="fill: rgb(255, 255, 255); opacity: 0.2; transform-origin: 136.565px 106.29px;" class="animable" id="eludqsmimdg7h"></polygon></g><g id="elr3jptxlqlke"><path d="M142,104.32h0l-.51,1.3h0l-1.78,1.61a.27.27,0,0,0-.09.21l.21,2.5h0l-.43,1.13h0l-1.09-.61h0l2.64-6.31h0Z" style="fill: rgb(255, 255, 255); opacity: 0.3; transform-origin: 140.155px 107.61px;" class="animable" id="eln3vt68yijfb"></path></g><path d="M157.2,104.88l-2.09,1.88-.65.58a.24.24,0,0,0-.08.21l0,1,.13,2.72a.25.25,0,0,1-.36.24l-.75-.41-1.09-.61-.81-.45.81.45,1.1.6.15.09a.25.25,0,0,0,.36-.25l-.08-1h0l-.21-2.5a.27.27,0,0,1,.09-.21l1.78-1.61,1-.85a.23.23,0,0,0-.1-.4l-.35,0-1.06-.16-2-.3a.21.21,0,0,1-.17-.13l-.42-1h0l-.18-.46-.27-.65h0l-.1-.25h0l-.17-.42-.14-.35a.25.25,0,0,0-.13-.12l.62.09.1,0,0,0,.1.09.3.76.06.14.12.29.8,2a.22.22,0,0,0,.16.12l1.33.2,1.06.15,1.06.16A.22.22,0,0,1,157.2,104.88Z" style="fill: #096191; transform-origin: 154.336px 106.028px;" id="el57l0eg8gjls" class="animable"></path><g id="eljvkyvafeh6i"><path d="M157.2,104.88l-2.09,1.88-.65.58a.24.24,0,0,0-.08.21l0,1,.13,2.72a.25.25,0,0,1-.36.24l-.75-.41-1.09-.61-.81-.45.81.45,1.1.6.15.09a.25.25,0,0,0,.36-.25l-.08-1h0l-.21-2.5a.27.27,0,0,1,.09-.21l1.78-1.61,1-.85a.23.23,0,0,0-.1-.4l-.35,0-1.06-.16-2-.3a.21.21,0,0,1-.17-.13l-.42-1h0l-.18-.46-.27-.65h0l-.1-.25h0l-.17-.42-.14-.35a.25.25,0,0,0-.13-.12l.62.09.1,0,0,0,.1.09.3.76.06.14.12.29.8,2a.22.22,0,0,0,.16.12l1.33.2,1.06.15,1.06.16A.22.22,0,0,1,157.2,104.88Z" style="opacity: 0.5; transform-origin: 154.336px 106.028px;" class="animable" id="elhg1yg0w75w"></path></g><path d="M152.22,100.68l-.12-.11A.21.21,0,0,1,152.22,100.68Z" style="fill: rgb(38, 50, 56); transform-origin: 152.16px 100.625px;" id="elaiya3oif54g" class="animable"></path><path d="M152,100.55l.09,0Z" style="fill: rgb(38, 50, 56); transform-origin: 152.045px 100.55px;" id="elxvz8x66n33l" class="animable"></path><path d="M151.05,109.76l-1.72.87h0l-.82.41-.51.25h0a.36.36,0,0,1-.23,0h0l-.7-.11h0l.1,0,.41-.21.71-.35.37-.19.18-.09.78-.39.82-.41a.22.22,0,0,1,.22,0Z" style="fill: #096191; transform-origin: 149.06px 110.41px;" id="elmq0tpm6ixc" class="animable"></path><g id="eleag9uqk270n"><path d="M151.05,109.76l-1.72.87h0l-.82.41-.51.25h0a.36.36,0,0,1-.23,0h0l-.7-.11h0l.1,0,.41-.21.71-.35.37-.19.18-.09.78-.39.82-.41a.22.22,0,0,1,.22,0Z" style="opacity: 0.5; transform-origin: 149.06px 110.41px;" class="animable" id="el3i4baxbngm"></path></g><path d="M151.92,101.6l-.31-.59-.3-.56h.07a.25.25,0,0,1,.13.12l.14.35Z" style="fill: rgb(38, 50, 56); transform-origin: 151.615px 101.025px;" id="el1ljdo0xh66c" class="animable"></path><path d="M148.63,110.42l-1.08.54-.41.21-.1,0,.72-1.33.06,0Z" style="fill: rgb(38, 50, 56); transform-origin: 147.835px 110.505px;" id="el78i0gccog77" class="animable"></path><path d="M156.5,104.78l-1,.85h0l-1.78,1.61a.27.27,0,0,0-.09.21l.21,2.5h0l.08,1a.25.25,0,0,1-.36.25l-.15-.09-1.1-.6-.81-.45h0l-.48-.26-.42-.23a.22.22,0,0,0-.22,0l-.82.41-.78.39-.18.09-.37.19-.71.35-.41.21-.1,0a.21.21,0,0,1-.21-.27l0-.21.85-3.26a.22.22,0,0,0,0-.21l-2.31-2.46a.25.25,0,0,1,.16-.4l3.54-.51a.26.26,0,0,0,.18-.13l1.84-3.16,0-.06.12-.06h.12a.25.25,0,0,1,.13.12l.14.35.17.42.1.25h0l.27.65.18.46h0l.42,1a.21.21,0,0,0,.17.13l2,.3,1.06.16.35,0A.23.23,0,0,1,156.5,104.78Z" style="fill: #096191; transform-origin: 150.968px 105.853px;" id="elbdgclc1yswu" class="animable"></path><g id="elgds1wyu3hwn"><path d="M151.82,101.35v0l-3.42,8.88-.13.34-.71.35-.41.21-.1,0a.21.21,0,0,1-.21-.27l0-.21,4.26-10.19.12-.06h.12a.25.25,0,0,1,.13.12l.14.35Z" style="fill: rgb(255, 255, 255); opacity: 0.4; transform-origin: 149.326px 105.765px;" class="animable" id="elchhhvg1hhbn"></path></g><g id="elo8zms44hpl9"><polygon points="152.38 102.71 152.38 102.71 149.59 109.94 148.81 110.33 152.19 102.25 152.38 102.71" style="fill: rgb(255, 255, 255); opacity: 0.2; transform-origin: 150.595px 106.29px;" class="animable" id="elnuwcuxk6h4o"></polygon></g><g id="el8mgnla9thbx"><path d="M156.05,104.32h0l-.51,1.3h0l-1.78,1.61a.27.27,0,0,0-.09.21l.21,2.5h0l-.43,1.13h0l-1.09-.61h0l2.64-6.31h0Z" style="fill: rgb(255, 255, 255); opacity: 0.3; transform-origin: 154.205px 107.61px;" class="animable" id="elu1are6w0pr"></path></g><path d="M171.23,104.88l-2.09,1.88-.65.58a.24.24,0,0,0-.08.21l0,1,.13,2.72a.25.25,0,0,1-.36.24l-.75-.41-1.09-.61-.81-.45.81.45,1.1.6.15.09a.25.25,0,0,0,.36-.25l-.08-1h0l-.21-2.5a.24.24,0,0,1,.09-.21l1.78-1.61,1-.85a.23.23,0,0,0-.1-.4l-.35,0-1.06-.16-2-.3a.21.21,0,0,1-.17-.13l-.42-1h0l-.19-.46-.26-.65h0l-.1-.25h0l-.17-.42-.14-.35a.25.25,0,0,0-.13-.12l.62.09.09,0,0,0,.1.09.31.76.06.14.12.29.8,2a.22.22,0,0,0,.16.12l1.33.2,1.06.15,1.06.16A.22.22,0,0,1,171.23,104.88Z" style="fill: #096191; transform-origin: 168.366px 106.028px;" id="elqgjt067z7" class="animable"></path><g id="el9z3zvms9s6"><path d="M171.23,104.88l-2.09,1.88-.65.58a.24.24,0,0,0-.08.21l0,1,.13,2.72a.25.25,0,0,1-.36.24l-.75-.41-1.09-.61-.81-.45.81.45,1.1.6.15.09a.25.25,0,0,0,.36-.25l-.08-1h0l-.21-2.5a.24.24,0,0,1,.09-.21l1.78-1.61,1-.85a.23.23,0,0,0-.1-.4l-.35,0-1.06-.16-2-.3a.21.21,0,0,1-.17-.13l-.42-1h0l-.19-.46-.26-.65h0l-.1-.25h0l-.17-.42-.14-.35a.25.25,0,0,0-.13-.12l.62.09.09,0,0,0,.1.09.31.76.06.14.12.29.8,2a.22.22,0,0,0,.16.12l1.33.2,1.06.15,1.06.16A.22.22,0,0,1,171.23,104.88Z" style="opacity: 0.5; transform-origin: 168.366px 106.028px;" class="animable" id="el96muqv8jlnr"></path></g><path d="M166.24,100.68l-.12-.11A.17.17,0,0,1,166.24,100.68Z" style="fill: rgb(38, 50, 56); transform-origin: 166.18px 100.625px;" id="elvdt3avnxxdl" class="animable"></path><path d="M166,100.55l.09,0Z" style="fill: rgb(38, 50, 56); transform-origin: 166.045px 100.55px;" id="el2e8gk4hjzbb" class="animable"></path><path d="M165.08,109.76l-1.72.87h0l-.82.41-.51.25h0a.36.36,0,0,1-.23,0h0l-.7-.11h0l.1,0,.41-.21.71-.35.37-.19.17-.09.79-.39.82-.41a.22.22,0,0,1,.22,0Z" style="fill: #096191; transform-origin: 163.09px 110.41px;" id="elifro3y8dm5o" class="animable"></path><g id="elqis72iw0hmn"><path d="M165.08,109.76l-1.72.87h0l-.82.41-.51.25h0a.36.36,0,0,1-.23,0h0l-.7-.11h0l.1,0,.41-.21.71-.35.37-.19.17-.09.79-.39.82-.41a.22.22,0,0,1,.22,0Z" style="opacity: 0.5; transform-origin: 163.09px 110.41px;" class="animable" id="el600rb9k09hp"></path></g><path d="M166,101.6l-.31-.59-.3-.56h.07a.25.25,0,0,1,.13.12l.14.35Z" style="fill: rgb(38, 50, 56); transform-origin: 165.695px 101.025px;" id="eltl71euio9o" class="animable"></path><path d="M162.66,110.42l-1.08.54-.41.21-.1,0,.72-1.33.06,0Z" style="fill: rgb(38, 50, 56); transform-origin: 161.865px 110.505px;" id="elea7g8mtq3go" class="animable"></path><path d="M170.53,104.78l-1,.85h0l-1.78,1.61a.24.24,0,0,0-.09.21l.21,2.5h0l.08,1a.25.25,0,0,1-.36.25l-.15-.09-1.1-.6-.81-.45h0l-.48-.26-.42-.23a.22.22,0,0,0-.22,0l-.82.41-.79.39-.17.09-.37.19-.71.35-.41.21-.1,0a.22.22,0,0,1-.22-.27l.06-.21.85-3.26a.25.25,0,0,0,0-.21l-2.31-2.46a.25.25,0,0,1,.16-.4l3.53-.51a.26.26,0,0,0,.19-.13l1.84-3.16,0-.06a.27.27,0,0,1,.12-.06h.12a.25.25,0,0,1,.13.12l.14.35.17.42.1.25h0l.26.65.19.46h0l.42,1a.21.21,0,0,0,.17.13l2,.3,1.06.16.35,0A.23.23,0,0,1,170.53,104.78Z" style="fill: #096191; transform-origin: 165.03px 105.853px;" id="elfuz6ywuuzt" class="animable"></path><g id="el4purx86h5jd"><path d="M165.85,101.35v0l-3.42,8.88-.13.34-.71.35-.41.21-.1,0a.22.22,0,0,1-.22-.27l.06-.21,4.26-10.19a.27.27,0,0,1,.12-.06h.12a.25.25,0,0,1,.13.12l.14.35Z" style="fill: rgb(255, 255, 255); opacity: 0.4; transform-origin: 163.352px 105.765px;" class="animable" id="el1h8gw3hq0ri"></path></g><g id="elgbhssb7d1e"><polygon points="166.4 102.71 166.4 102.71 163.62 109.94 162.83 110.33 166.21 102.25 166.4 102.71" style="fill: rgb(255, 255, 255); opacity: 0.2; transform-origin: 164.615px 106.29px;" class="animable" id="eljocryfufzpo"></polygon></g><g id="el4a5fl3l88qu"><path d="M170.08,104.32h0l-.51,1.3h0l-1.78,1.61a.24.24,0,0,0-.09.21l.21,2.5h0l-.43,1.13h0l-1.09-.61h0l2.64-6.31h0Z" style="fill: rgb(255, 255, 255); opacity: 0.3; transform-origin: 168.235px 107.61px;" class="animable" id="el847ho8jjlig"></path></g><path d="M185.26,104.88l-2.09,1.88-.65.58a.24.24,0,0,0-.08.21l0,1,.13,2.72a.25.25,0,0,1-.36.24l-.75-.41-1.09-.61-.81-.45.81.45,1.09.6.16.09a.25.25,0,0,0,.36-.25l-.08-1h0l-.21-2.5a.24.24,0,0,1,.09-.21l1.78-1.61,1-.85a.23.23,0,0,0-.1-.4l-.35,0-1.07-.16-2-.3a.21.21,0,0,1-.17-.13l-.42-1h0l-.19-.46-.26-.65h0l-.1-.25h0l-.17-.42-.14-.35a.25.25,0,0,0-.13-.12l.62.09.09,0,0,0,.1.09.31.76.06.14.12.29.8,2a.2.2,0,0,0,.16.12l1.32.2,1.07.15,1.06.16A.22.22,0,0,1,185.26,104.88Z" style="fill: #096191; transform-origin: 182.39px 106.028px;" id="elx8y2pr9j7al" class="animable"></path><g id="el1chtvsxoa1d"><path d="M185.26,104.88l-2.09,1.88-.65.58a.24.24,0,0,0-.08.21l0,1,.13,2.72a.25.25,0,0,1-.36.24l-.75-.41-1.09-.61-.81-.45.81.45,1.09.6.16.09a.25.25,0,0,0,.36-.25l-.08-1h0l-.21-2.5a.24.24,0,0,1,.09-.21l1.78-1.61,1-.85a.23.23,0,0,0-.1-.4l-.35,0-1.07-.16-2-.3a.21.21,0,0,1-.17-.13l-.42-1h0l-.19-.46-.26-.65h0l-.1-.25h0l-.17-.42-.14-.35a.25.25,0,0,0-.13-.12l.62.09.09,0,0,0,.1.09.31.76.06.14.12.29.8,2a.2.2,0,0,0,.16.12l1.32.2,1.07.15,1.06.16A.22.22,0,0,1,185.26,104.88Z" style="opacity: 0.5; transform-origin: 182.39px 106.028px;" class="animable" id="elnyocm8a4ilq"></path></g><path d="M180.27,100.68l-.12-.11A.19.19,0,0,1,180.27,100.68Z" style="fill: rgb(38, 50, 56); transform-origin: 180.21px 100.625px;" id="elgzvuj5flqcl" class="animable"></path><path d="M180.06,100.55l.09,0Z" style="fill: rgb(38, 50, 56); transform-origin: 180.105px 100.55px;" id="el3t54qxr29vh" class="animable"></path><path d="M179.11,109.76l-1.73.87h0l-.81.41-.51.25h0a.36.36,0,0,1-.23,0h0l-.7-.11h0l.1,0,.4-.21.71-.35.37-.19.18-.09.79-.39.82-.41a.2.2,0,0,1,.21,0Z" style="fill: #096191; transform-origin: 177.12px 110.41px;" id="el5r3u6x9uglv" class="animable"></path><g id="el8fi81spr3l8"><path d="M179.11,109.76l-1.73.87h0l-.81.41-.51.25h0a.36.36,0,0,1-.23,0h0l-.7-.11h0l.1,0,.4-.21.71-.35.37-.19.18-.09.79-.39.82-.41a.2.2,0,0,1,.21,0Z" style="opacity: 0.5; transform-origin: 177.12px 110.41px;" class="animable" id="el4o7alaa9vqa"></path></g><path d="M180,101.6l-.32-.59-.29-.56h.07a.25.25,0,0,1,.13.12l.14.35Z" style="fill: rgb(38, 50, 56); transform-origin: 179.695px 101.025px;" id="elfqp89db7ku5" class="animable"></path><path d="M176.68,110.42l-1.08.54-.4.21-.1,0,.72-1.33.06,0Z" style="fill: rgb(38, 50, 56); transform-origin: 175.89px 110.505px;" id="ellzdvjp0xwkl" class="animable"></path><path d="M184.56,104.78l-1,.85h0l-1.78,1.61a.24.24,0,0,0-.09.21l.21,2.5h0l.08,1a.25.25,0,0,1-.36.25l-.16-.09-1.09-.6-.81-.45h0l-.48-.26-.43-.23a.2.2,0,0,0-.21,0l-.82.41-.79.39-.18.09-.37.19-.71.35-.4.21-.1,0a.21.21,0,0,1-.22-.27l.06-.21.84-3.26a.22.22,0,0,0,0-.21l-2.31-2.46a.25.25,0,0,1,.16-.4l3.53-.51a.26.26,0,0,0,.19-.13l1.84-3.16,0-.06a.23.23,0,0,1,.12-.06h.12a.25.25,0,0,1,.13.12l.14.35.17.42.1.25h0l.26.65.19.46h0l.42,1a.21.21,0,0,0,.17.13l2,.3,1.07.16.35,0A.23.23,0,0,1,184.56,104.78Z" style="fill: #096191; transform-origin: 179.056px 105.853px;" id="el5ksm9u9yguw" class="animable"></path><g id="elkv7jwgu3o7"><path d="M179.88,101.35v0l-3.43,8.88-.13.34-.71.35-.4.21-.1,0a.21.21,0,0,1-.22-.27l.06-.21,4.26-10.19a.23.23,0,0,1,.12-.06h.12a.25.25,0,0,1,.13.12l.14.35Z" style="fill: rgb(255, 255, 255); opacity: 0.4; transform-origin: 177.381px 105.765px;" class="animable" id="elp76pg8mzfs"></path></g><g id="elot1cs4mn72"><polygon points="180.43 102.71 180.43 102.71 177.65 109.94 176.86 110.33 180.24 102.25 180.43 102.71" style="fill: rgb(255, 255, 255); opacity: 0.2; transform-origin: 178.645px 106.29px;" class="animable" id="elaxlp452wbpl"></polygon></g><g id="elmm8jap9loho"><path d="M184.11,104.32h0l-.51,1.3h0l-1.78,1.61a.24.24,0,0,0-.09.21l.21,2.5h0l-.44,1.13h0l-1.09-.61h0l2.63-6.31h0Z" style="fill: rgb(255, 255, 255); opacity: 0.3; transform-origin: 182.26px 107.61px;" class="animable" id="el7nih2yre0bn"></path></g><rect x="127.71" y="120.35" width="60.29" height="1" style="fill: #096191; transform-origin: 157.855px 120.85px;" id="elyjt5hoc85" class="animable"></rect><rect x="115.93" y="125.97" width="72.06" height="1" style="fill: #096191; transform-origin: 151.96px 126.47px;" id="elpyr0xqwinm8" class="animable"></rect><rect x="115.93" y="131.6" width="49.44" height="1" style="fill: #096191; transform-origin: 140.65px 132.1px;" id="el5ju7zsif7td" class="animable"></rect></g><g id="freepik--character-2--inject-195" class="animable" style="transform-origin: 314.731px 345.453px;"><path d="M276.71,365.57l-1.46,5.94s-14.41-4.33-19.25,7.77,7.76,37.92,46.09,29c0,0,10.33,2.81,19.17.58,13.09-3.3,29.77-11,31.57-23.15,3-20.37-37.51-13.14-37.51-13.14l-1.51-3.82Z" style="fill: #096191; transform-origin: 304.001px 387.844px;" id="elgykhv7xe2e" class="animable"></path><g id="elg41ahnkf4v5"><path d="M281.82,374.12s9.08,4.58,12.37,12.28l3.91,1.44S295.8,377.34,281.82,374.12Z" style="opacity: 0.1; transform-origin: 289.96px 380.98px;" class="animable" id="elb9dulh435e"></path></g><path d="M311.23,393.56s.28-13,13.23-23l10.07,0L315.09,396Z" style="fill: #096191; transform-origin: 322.88px 383.28px;" id="el7cg7sx58h4" class="animable"></path><path d="M255.66,380.27S252,390.76,266,402.45s21.42-3.87,21.42-3.87l1.08-5.94-9.52-8.5L266.83,376l-6.61.78Z" style="fill: #096191; transform-origin: 271.864px 391.401px;" id="el3nt9y3zpqva" class="animable"></path><path d="M255.58,381.72A27.63,27.63,0,0,0,271.16,403c11.94,5.7,15-10.41,15-10.41l-22-14.35L256,379.28Z" style="fill: rgb(255, 139, 123); transform-origin: 270.87px 391.23px;" id="el7ilmkdo2r0s" class="animable"></path><g id="el7sh0sky9zuc"><path d="M255.58,381.72A27.63,27.63,0,0,0,271.16,403c11.94,5.7,15-10.41,15-10.41l-22-14.35L256,379.28Z" style="opacity: 0.1; isolation: isolate; transform-origin: 270.87px 391.23px;" class="animable" id="elfmn08dq7x0f"></path></g><path d="M350.93,420a21.52,21.52,0,0,0-11.29-9.77,3.19,3.19,0,0,1-1.24-1.12,2.49,2.49,0,0,1-.31-.58l-2.46-8a.71.71,0,0,1-.05-.45.74.74,0,0,1,.31-.53l6.88-4a1.34,1.34,0,0,1,1.88.28c.05.08.1.16.14.24,1.39,3.35,2.5,6.37,4.31,10.49,2.13,4.86,2.18,3.37,4.75,9.06C355.41,419,351.77,421.34,350.93,420Z" style="fill: rgb(38, 50, 56); transform-origin: 344.899px 407.834px;" id="el1dzzam9xp93" class="animable"></path><path d="M326.38,371.94s34.64-7.53,40.18,3.47-14.12,18.35-21.11,20.81C333.27,400.53,291,413.8,291,413.8l2.75-8.62,20.17-11.47S314.84,382.15,326.38,371.94Z" style="fill: rgb(255, 139, 123); transform-origin: 329.266px 391.613px;" id="elqzo1eyfkmc" class="animable"></path><path d="M293.83,412.72l3-9.09a.77.77,0,0,0-.33-.91l-6.86-4.09a1.28,1.28,0,0,0-1.76.43,1.15,1.15,0,0,0-.12.25c-1,3.3-1.81,6.27-3.16,10.35-1.6,4.82-1.77,3.41-3.73,9-1.17,3.4,2.5,5.31,3.17,3.93,3-6.35,5.25-6.38,8.47-8.15A3,3,0,0,0,293.83,412.72Z" style="fill: rgb(38, 50, 56); transform-origin: 288.757px 410.743px;" id="elji3t4vk71wi" class="animable"></path><g id="elalz58se7bk5"><path d="M341.9,375.14c-.33-1.28-19.53,10.95-25.52,10.22a33.18,33.18,0,0,0-1.91,5.45h0c-.09.35-.16.67-.22,1l0,.15c0,.11-.05.21-.07.32l0,.17c0,.09,0,.17-.05.26a.88.88,0,0,0,0,.16,1.77,1.77,0,0,0,0,.2.77.77,0,0,1,0,.15.59.59,0,0,1,0,.14c0,.05,0,.09,0,.13a.25.25,0,0,0,0,.08.38.38,0,0,0,0,.1v0h0v0L295,404.47l14.81,3.38c8.84-2.82,19.09-6.1,26.86-8.66l-19.62-7.4C324.43,387.26,342.18,376.23,341.9,375.14Z" style="opacity: 0.1; isolation: isolate; transform-origin: 318.452px 391.448px;" class="animable" id="el2pje0cidfia"></path></g><path d="M338.4,409.08c-10.72-1.36-31.07-4-38.08-5.53-12.66-2.73-54.37-13.45-43.76-27.66,11.08-14.85,33.24,7.7,33.24,7.7L335.58,400a.71.71,0,0,0,.05.45l2.46,8A2.49,2.49,0,0,0,338.4,409.08Z" style="fill: rgb(255, 139, 123); transform-origin: 296.625px 389.954px;" id="elbbr6jgnrdot" class="animable"></path><g id="elxlg7vo27stk"><path d="M272.14,375.26c-3.3,1.43,17.66,8.33,17.66,8.33a63.15,63.15,0,0,0-8.93-7.27C277.64,375,274.35,374.3,272.14,375.26Z" style="opacity: 0.1; isolation: isolate; transform-origin: 280.794px 379.202px;" class="animable" id="elgo8gsf0v2a"></path></g><path d="M362.32,322.78l8-3.75-3.14-8.67-3.31,4.55a21.33,21.33,0,0,1-2.73,3h0Z" style="fill: rgb(255, 139, 123); transform-origin: 365.73px 316.57px;" id="el98fsxo7bcgt" class="animable"></path><path d="M365.36,310.84l3.45,8.91,5.11-2a1.2,1.2,0,0,0,.64-1.44L373,309.42a.62.62,0,0,0-.76-.41Z" style="fill: rgb(255, 139, 123); transform-origin: 369.986px 314.368px;" id="el73448azxwk" class="animable"></path><path d="M368.51,314.39l-2.14,1.77-3.21-.41.51-1.12a3.4,3.4,0,0,0,.17-2.41,13.72,13.72,0,0,0-1-2.42l-.13-.26a1.18,1.18,0,0,1,.36-1.38s1.17-.27,2.34,2.38l.79,1.17,1.19-.13Z" style="fill: rgb(255, 139, 123); transform-origin: 365.565px 312.156px;" id="elxpkr8p2xd3b" class="animable"></path><path d="M316.63,314.11l18,12.85,27.73-10,2.39,4.22S342.5,337.12,335.29,337s-25.79-15.49-25.79-15.49Z" style="fill: rgb(255, 139, 123); transform-origin: 337.125px 325.555px;" id="ela006jtgkr5p" class="animable"></path><g id="freepik--Character--inject-2--inject-195" class="animable" style="transform-origin: 303.21px 321.682px;"><path d="M312.07,313.14c2.9-1.92,6.6-5,19.26,9.64l-8.58,9.88C314.45,329.58,306.49,319,312.07,313.14Z" style="fill: rgb(38, 50, 56); transform-origin: 320.769px 322.072px;" id="elm6maem5renr" class="animable"></path><path d="M307.51,308l-8.71-2.07-11.08-.07a7.68,7.68,0,0,0-7.45,5.6,197.77,197.77,0,0,0-4.5,24c-1.24,9.09.29,19.49.62,31.81l39.53,1.51c-2.09-18,1.46-33.73,3.82-43.21.52-5.82.05-12.72-3.11-14.07Z" style="fill: rgb(38, 50, 56); transform-origin: 297.607px 337.32px;" id="el3jfq8bny91x" class="animable"></path><g id="el9lbpq0ia2bs"><path d="M275.77,335.42c.86-6.37,2-13.56,3.36-19.52,7.32-1.54,11.54,14.46,9.67,22.56s-13.71,3.71-13.71,3.71C275.27,339.75,275.5,337.47,275.77,335.42Z" style="opacity: 0.3; isolation: isolate; transform-origin: 282.166px 329.577px;" class="animable" id="elq9gtzogyjdk"></path></g><path d="M301.64,291.75l3.55,5,4.83,6.78a7,7,0,0,0-1.32,2.11c-.73,1.71-1.4,3,2.22,5.25a2.37,2.37,0,0,1,1.15,2.27c-.17,1.09-1.2,2.19-5,1.68a17.45,17.45,0,0,1-9.75-4.91c-1.31-1.21-1.06-2.17.1-3.54C300.73,302.52,301.52,296.55,301.64,291.75Z" style="fill: rgb(255, 139, 123); transform-origin: 304.26px 303.359px;" id="eliao7kollmwg" class="animable"></path><g id="el3l7xnr82h04"><path d="M308.86,301.83l-3-4.84-.17.42a11.48,11.48,0,0,0-.52,1.91c-.42,2.22,1.41,5.3,3.35,6.72l.21-.44a8.15,8.15,0,0,1,1.21-2,.24.24,0,0,1,.11-.09Z" style="opacity: 0.2; isolation: isolate; transform-origin: 307.58px 301.515px;" class="animable" id="eltfhjwlxxdbe"></path></g><path d="M315.11,292.07c4.1-6,3.85-9.69,7.45-12.69,1.79-.54,4.36,3,1.71,8S315.11,292.07,315.11,292.07Z" style="fill: rgb(38, 50, 56); transform-origin: 320.259px 285.7px;" id="ely6i8y5c9d2" class="animable"></path><path d="M302.81,283.31c-1.32,7.38-2.41,11.63.38,16.14,4.22,6.84,14,5.49,17.49-1.39,3.13-6.19,4.7-17.2-1.76-21.67a10.39,10.39,0,0,0-16.11,6.92Z" style="fill: rgb(255, 139, 123); transform-origin: 312.422px 289.267px;" id="elfi11zo9imgd" class="animable"></path><path d="M301.1,289.79l3.71,2.9,1.34-6.43,3.53-1.47,4.77-5.51s-8.38-3.64-10.93-4.32c-.89-.23-4.39,1.84-5,2.82a8.57,8.57,0,0,0,.28,9A18.67,18.67,0,0,0,301.1,289.79Z" style="fill: rgb(38, 50, 56); transform-origin: 305.914px 283.816px;" id="el3dv319t74w5" class="animable"></path><path d="M298.5,288.19a6.79,6.79,0,0,0,1.72,4.54c1.45,1.6,3.53.2,4-1.89.37-1.86-.32-4.7-2.18-5.51S298.51,286.11,298.5,288.19Z" style="fill: rgb(255, 139, 123); transform-origin: 301.408px 289.269px;" id="elfgb5zuy8wd" class="animable"></path><path d="M313.53,288.82c-.17.59,0,1.18.39,1.31s.8-.26,1-.85a1,1,0,0,0-.39-1.32C314.15,287.83,313.7,288.21,313.53,288.82Z" style="fill: rgb(38, 50, 56); transform-origin: 314.247px 289.045px;" id="elwbzb4wrs7y" class="animable"></path><path d="M320.24,291c-.17.6,0,1.19.4,1.32s.83-.26,1-.85,0-1.19-.39-1.31S320.41,290.37,320.24,291Z" style="fill: rgb(38, 50, 56); transform-origin: 320.94px 291.24px;" id="elsg3zmg8dq1a" class="animable"></path><path d="M318,290.72a20.39,20.39,0,0,0,.83,5.21,3,3,0,0,1-2.52-.49Z" style="fill: rgb(255, 86, 82); transform-origin: 317.57px 293.372px;" id="el88oshtaia2m" class="animable"></path><path d="M314.74,298.79a5.35,5.35,0,0,1-3.26-2.65.19.19,0,0,1,.08-.25.2.2,0,0,1,.25.1,5.12,5.12,0,0,0,3.7,2.61.19.19,0,0,1,0,.37h0A6.15,6.15,0,0,1,314.74,298.79Z" style="fill: rgb(38, 50, 56); transform-origin: 313.559px 297.424px;" id="elnhc94ig5y7l" class="animable"></path><path d="M312.82,286.28a.53.53,0,0,1-.14-.12.38.38,0,0,1,.09-.51,3.51,3.51,0,0,1,3.27-.47.35.35,0,0,1,.2.47h0a.37.37,0,0,1-.49.19,2.8,2.8,0,0,0-2.56.4A.35.35,0,0,1,312.82,286.28Z" style="fill: rgb(38, 50, 56); transform-origin: 314.444px 285.643px;" id="elqx2g0haqds" class="animable"></path><path d="M321.39,287.09a.34.34,0,0,1,.47-.4,3.48,3.48,0,0,1,2.25,2.43.36.36,0,1,1-.71.14,2.8,2.8,0,0,0-1.79-1.88A.37.37,0,0,1,321.39,287.09Z" style="fill: rgb(38, 50, 56); transform-origin: 322.747px 288.105px;" id="elb9wlie1ic1s" class="animable"></path></g><path d="M318.73,372.2l-24.18-2.35s-.08-.46,2-.57c.1,0,.28,0,.54,0,.41,0,2.06-.12,4.25-.23.13,0,.37,0,.71,0,6.32-.3,16.31-.71,16.31-.71l.31,3.26Z" style="fill: #096191; transform-origin: 306.64px 370.27px;" id="el3qolgn8nty6" class="animable"></path><g id="eli5k0vpkboy"><path d="M318.67,371.54l-18.17-1.83s-.72-.53.84-.69c.13,0,.37,0,.71,0,6.32-.3,16.31-.71,16.31-.71Z" style="fill: rgb(255, 255, 255); opacity: 0.2; transform-origin: 309.502px 369.925px;" class="animable" id="elpbaiu42z0n"></path></g><path d="M307.28,362l3.64.93-4.81,7.47s-7.67-2.41-6.26-5.76l1.86-1.16C303.3,362.5,305.33,361.44,307.28,362Z" style="fill: rgb(255, 139, 123); transform-origin: 305.298px 366.122px;" id="elcfzbs31lzop" class="animable"></path><polygon points="314.31 367.83 310.85 371.58 306.11 370.42 310.92 362.96 314.31 367.83" style="fill: rgb(255, 139, 123); transform-origin: 310.21px 367.27px;" id="elvl6lhxnea2" class="animable"></polygon><path d="M286.27,331.66c-2.27,6.87-4.71,7.78-1.94,11.38s18.46,15.91,21.4,19.55l-4.93,3.75q-8.7-4.81-17.5-9.43c-4.28-2.25-8.84-4.71-11.08-9-3.2-6.15-1.4-12,2.18-20C277.9,327.34,286.27,331.66,286.27,331.66Z" style="fill: rgb(255, 139, 123); transform-origin: 288.144px 347.099px;" id="elu4f47pe17e" class="animable"></path><path d="M285.25,306c7.75-1.5,11.85,5,8.58,15.16a93.65,93.65,0,0,1-6.48,15.88l-17.1-6.68C272.91,320.39,277.33,307.57,285.25,306Z" style="fill: rgb(38, 50, 56); transform-origin: 282.606px 321.413px;" id="elc3g76nuxpj4" class="animable"></path><path d="M316.06,373.42l43.65-1.77a.83.83,0,0,0,.79-.85h0a.83.83,0,0,0-.86-.79L316,371.78a.82.82,0,0,0-.79.85h0A.83.83,0,0,0,316.06,373.42Z" style="fill: rgb(38, 50, 56); transform-origin: 337.855px 371.715px;" id="ela97o8v5lein" class="animable"></path><path d="M294.82,371.26l20.9,2.14a.81.81,0,0,0,.9-.73h0a.81.81,0,0,0-.73-.9L295,369.63a.83.83,0,0,0-.9.73h0A.83.83,0,0,0,294.82,371.26Z" style="fill: #096191; transform-origin: 305.361px 371.516px;" id="ellmmgn4flg28" class="animable"></path><g id="eljrxg4bkv2f"><path d="M294.82,371.26l20.9,2.14a.81.81,0,0,0,.9-.73h0a.81.81,0,0,0-.73-.9L295,369.63a.83.83,0,0,0-.9.73h0A.83.83,0,0,0,294.82,371.26Z" style="opacity: 0.4; transform-origin: 305.361px 371.516px;" class="animable" id="elbmhrd7yf03p"></path></g><path d="M317.18,371.73l40.7-1.65a2.93,2.93,0,0,0,2.74-2.73l1-20.68a2.38,2.38,0,0,0-2.49-2.52l-40.71,1.65a2.93,2.93,0,0,0-2.73,2.73l-1,20.68A2.36,2.36,0,0,0,317.18,371.73Z" style="fill: #096191; transform-origin: 338.154px 357.941px;" id="elfdbf3cxukmu" class="animable"></path><g id="elpdsse67t2cd"><path d="M317.18,371.73l40.7-1.65a2.93,2.93,0,0,0,2.74-2.73l1-20.68a2.38,2.38,0,0,0-2.49-2.52l-40.71,1.65a2.93,2.93,0,0,0-2.73,2.73l-1,20.68A2.36,2.36,0,0,0,317.18,371.73Z" style="opacity: 0.4; transform-origin: 338.154px 357.941px;" class="animable" id="elp7653qnwuss"></path></g><path d="M318.37,371.59l40.71-1.65a2.92,2.92,0,0,0,2.73-2.72l1-20.69a2.36,2.36,0,0,0-2.49-2.51l-40.7,1.65a2.91,2.91,0,0,0-2.74,2.72l-1,20.69A2.37,2.37,0,0,0,318.37,371.59Z" style="fill: #096191; transform-origin: 339.345px 357.805px;" id="elo4pdwetxlsr" class="animable"></path><g id="elas6xp45dc9o"><path d="M318.37,371.59l40.71-1.65a2.92,2.92,0,0,0,2.73-2.72l1-20.69a2.36,2.36,0,0,0-2.49-2.51l-40.7,1.65a2.91,2.91,0,0,0-2.74,2.72l-1,20.69A2.37,2.37,0,0,0,318.37,371.59Z" style="fill: rgb(255, 255, 255); opacity: 0.5; transform-origin: 339.345px 357.805px;" class="animable" id="eljnumyvusefe"></path></g><path d="M344.89,358.55a4.57,4.57,0,0,1-4.24,4.35,3.71,3.71,0,0,1-4-3.91,4.58,4.58,0,0,1,4.24-4.35A3.71,3.71,0,0,1,344.89,358.55Z" style="fill: rgb(255, 255, 255); transform-origin: 340.77px 358.77px;" id="elj498bi537bs" class="animable"></path><path d="M302.17,269.79a7.1,7.1,0,0,1,5.9-1.85,20.93,20.93,0,0,1,6.07,2L325.7,275a4.72,4.72,0,0,1,2.63,2c.66,1.48-.46,3.26-1.95,3.89a8.67,8.67,0,0,1-4.77.16A105.35,105.35,0,0,1,305.68,277C302.45,275.94,298.55,273.66,302.17,269.79Z" style="fill: rgb(38, 50, 56); transform-origin: 314.621px 274.587px;" id="elt8be05h23pa" class="animable"></path><path d="M317.48,279.63a2.37,2.37,0,0,0-1.05,3.07A2.22,2.22,0,0,1,317.8,281c.71-.38,1.39-1.29.86-1.89A7.1,7.1,0,0,0,317.48,279.63Z" style="fill: rgb(38, 50, 56); transform-origin: 317.534px 280.905px;" id="el5x02tt7cc0x" class="animable"></path><path d="M320.61,279.77a3.71,3.71,0,0,1-.83,4.11,3.21,3.21,0,0,0,2.74-3.9l-1.68-.42Z" style="fill: rgb(38, 50, 56); transform-origin: 321.19px 281.72px;" id="el4v9ly538uuq" class="animable"></path></g><g id="freepik--character-1--inject-195" class="animable" style="transform-origin: 174.257px 273.19px;"><polygon points="138.49 403.81 145.03 405.23 149.57 393.6 141.94 390.21 138.49 403.81" style="fill: rgb(255, 181, 115); transform-origin: 144.03px 397.72px;" id="elr9vdzjqy88o" class="animable"></polygon><g id="eltyccabq9fjn"><polygon points="140.09 397.49 141.8 390.75 145.32 391.71 149.57 393.6 147.39 399.17 140.09 397.49" style="opacity: 0.1; transform-origin: 144.83px 394.96px;" class="animable" id="elhru7bqcw4ls"></polygon></g><path d="M136.33,403.13s-.27-.27-.63-.58-.57-.48-.91-.73a4.45,4.45,0,0,0-2.23-1,1,1,0,0,0-.69.27.72.72,0,0,0-.23.8c.21.49,1.15.93,2.11,1.19l.65.15a15.27,15.27,0,0,0,1.78.26h0a.18.18,0,0,0,.17-.12A.18.18,0,0,0,136.33,403.13Zm-1.46-.21c-1.31-.25-2.69-.7-2.88-1.2,0-.07-.05-.2.15-.39a.54.54,0,0,1,.42-.16,1.5,1.5,0,0,1,.37.05,8.33,8.33,0,0,1,2.33,1.49c.13.1.26.22.39.34C135.4,403,135.14,403,134.87,402.92Z" style="fill: #096191; transform-origin: 133.993px 402.155px;" id="elqizxvo57gmq" class="animable"></path><path d="M136,400a1.4,1.4,0,0,0-.93-.58c-.52-.09-.74.13-.82.33-.21.44.1,1.27.55,2.05a9,9,0,0,0,.58.85,5.29,5.29,0,0,0,.7.75.11.11,0,0,0,.08,0h0a.14.14,0,0,0,.09,0,.19.19,0,0,0,.12-.14,7.2,7.2,0,0,0,.08-.87A4.08,4.08,0,0,0,136,400Zm.07,2.83c-.09-.1-.19-.2-.28-.32-.72-.86-1.38-2.19-1.21-2.64,0,0,.08-.17.42-.11l.1,0a1,1,0,0,1,.57.39,4.36,4.36,0,0,1,.44,2.27C136.09,402.6,136.08,402.72,136.06,402.85Z" style="fill: #096191; transform-origin: 135.33px 401.403px;" id="el0bl9mkfaig3e" class="animable"></path><path d="M137.25,402.58l8.43,2.24a.7.7,0,0,1,.52.71l-.29,7.26a1.17,1.17,0,0,1-1.21,1.13,1,1,0,0,1-.24,0c-3-.85-5.69-1.74-9.47-2.74-4.47-1.18-3.48-.35-8.75-1.67-3.17-.79-2.8-4.54-1.41-4.36,6.35.85,7.48-.83,10.43-2.4A2.79,2.79,0,0,1,137.25,402.58Z" style="fill: rgb(38, 50, 56); transform-origin: 135.002px 408.199px;" id="elsx994i12dii" class="animable"></path><polygon points="185.9 411.75 192.59 411.75 194.56 399.42 186.38 397.72 185.9 411.75" style="fill: rgb(255, 181, 115); transform-origin: 190.23px 404.735px;" id="elcpubyhzv0l" class="animable"></polygon><g id="elctsokxm4jln"><polygon points="186.38 397.72 194.56 399.42 193.64 405.15 186.14 404.81 186.38 397.72" style="opacity: 0.1; transform-origin: 190.35px 401.435px;" class="animable" id="el95h7qyelmbj"></polygon></g><path d="M183.68,411.16s-.33-.19-.76-.4-.65-.3-1-.45a4.41,4.41,0,0,0-2.46-.42.94.94,0,0,0-.59.44.72.72,0,0,0,0,.83,3.41,3.41,0,0,0,2.35.59l.66,0a14.85,14.85,0,0,0,1.76-.22h0a.22.22,0,0,0,.15-.16A.21.21,0,0,0,183.68,411.16Zm-1.47.18c-1.33.1-2.77,0-3.08-.41-.06-.06-.11-.17,0-.41a.54.54,0,0,1,.37-.27,1.49,1.49,0,0,1,.36-.05,8.46,8.46,0,0,1,2.64.83,2.92,2.92,0,0,1,.47.23Z" style="fill: #096191; transform-origin: 181.265px 410.816px;" id="elrsuqj3afzs9" class="animable"></path><path d="M183.8,411.33a7.33,7.33,0,0,0-.14-.86,4.24,4.24,0,0,0-1.12-2.23,1.37,1.37,0,0,0-1-.31c-.53.05-.69.31-.71.53-.09.49.44,1.22,1.1,1.85a6.22,6.22,0,0,0,.75.64,4.37,4.37,0,0,0,.88.55.11.11,0,0,0,.08,0h0s.07,0,.1,0A.19.19,0,0,0,183.8,411.33Zm-2.67-2.84c0-.05,0-.18.38-.22h.1a1,1,0,0,1,.66.24,4.42,4.42,0,0,1,1,2.07,2.58,2.58,0,0,1,.06.37l-.35-.23C182.07,410.08,181.09,409,181.13,408.49Z" style="fill: #096191; transform-origin: 182.311px 409.716px;" id="elldteo26ak3g" class="animable"></path><path d="M184.43,410.39l8.72-.05a.71.71,0,0,1,.69.54l1.61,7.09a1.17,1.17,0,0,1-.86,1.41l-.25,0c-3.14,0-5.94-.2-9.86-.17-4.62,0-3.44.57-8.87.68-3.27.06-3.89-3.65-2.51-3.84,6.35-.84,7-2.76,9.43-5.05A2.79,2.79,0,0,1,184.43,410.39Z" style="fill: rgb(38, 50, 56); transform-origin: 183.946px 415.115px;" id="elmhp6ig8cwt" class="animable"></path><path d="M119.87,172.08l2.16,2.7,5.36-.43,1.85,1.89,25,6.92c6-4.91,18.74-10.72,18.74-10.72,6.72,2.84,6,7.86,6,7.86s-16.52,10-23.32,11.29c-5.82,1.1-28.83-11.89-28.83-11.89l-5.21-.17a2.69,2.69,0,0,1-1.84-.81l-1.45-1.49a2.71,2.71,0,0,1-.76-2.12l.22-2.43A1.13,1.13,0,0,1,119.87,172.08Z" style="fill: rgb(255, 181, 115); transform-origin: 148.281px 181.609px;" id="elzt0idt31en9" class="animable"></path><path d="M168.61,172.35l-10.25,6.57,7.08,10.36,15.05-10.15s0-.15,0-.42A7.91,7.91,0,0,0,168.61,172.35Z" style="fill: rgb(38, 50, 56); transform-origin: 169.425px 180.277px;" id="elpreedh684j" class="animable"></path><path d="M226.5,180.16a7.26,7.26,0,0,0,4.45-6.09c.09-2.65-2.07-5.33-4.72-5.35s-4.92,3.14-3.69,5.48a3,3,0,0,0,2.41,1.48h0c-2.62.34-3.36-1-4.09-3.12a9.24,9.24,0,0,1,.61-6.52,66.83,66.83,0,0,1,3.28-5.83c3.62-6.46,4.75-14.64,1.53-21.3s-11.35-11-18.37-8.67a15.6,15.6,0,0,0-2.87,1.31c-1.66.93-3.26,2.23-3.54,3.63a.24.24,0,0,0,0,.08,1.55,1.55,0,0,0,0,.48c0,2.34,3.17,4.71,4.75,5.81,1.88,1.3,3.94,2.6,5.21,4.43a6.55,6.55,0,0,1,.8,1.53c1.16,3.18-.44,6.67-2.27,9.52s-4,5.76-4.09,9.14c-.1,4.54-.34,15.12,15.76,16,3.37.18,7.25-.78,8.45-3.92A3.3,3.3,0,0,1,226.5,180.16ZM224,174.42a.69.69,0,0,1,.79.36A5.73,5.73,0,0,1,224,174.42Z" style="fill: rgb(38, 50, 56); transform-origin: 216.217px 155.897px;" id="elatfrnn35zav" class="animable"></path><path d="M203.73,228l8.69-50a3.29,3.29,0,0,0-3-3.83s-14.12-2.27-18.86-2.65c-3.61-.29-12.16-.38-17.22-.41l-.43,3.57c-3.15,7.85-3.45,19.7-2.27,28.23l.2,1.41-1.8,25v6.83H202.8Z" style="fill: rgb(38, 50, 56); transform-origin: 190.753px 203.63px;" id="elbx3mrkgf3pw" class="animable"></path><path d="M183.57,171.7c5.1-.87,6.06-5.1,5.66-9l10.84-6.83c-1.52,4.33-3.51,11.94-1.87,16.33,0,0,.05,4.21-9.29,4.21S183.57,171.7,183.57,171.7Z" style="fill: rgb(255, 181, 115); transform-origin: 191.394px 166.14px;" id="el3fqsa3hos3a" class="animable"></path><g id="elemi41721eh9"><path d="M189.23,162.73l7.19-4.53a3.73,3.73,0,0,1-.29,3.24,8.76,8.76,0,0,1-6.88,4A13.31,13.31,0,0,0,189.23,162.73Z" style="opacity: 0.2; isolation: isolate; transform-origin: 192.946px 161.82px;" class="animable" id="el01zo5qjyll0p"></path></g><path d="M204.32,146.94c-2.08,7.42-2.92,11.87-7.56,14.9-7,4.58-15.5-.89-15.66-8.76-.16-7.14,3.28-18.05,11.28-19.45a10.51,10.51,0,0,1,11.94,13.31Z" style="fill: rgb(255, 181, 115); transform-origin: 192.921px 148.487px;" id="eln13a9s13ots" class="animable"></path><path d="M192.09,146.57c-.13.62-.56,1.05-1,1s-.62-.65-.49-1.27.57-1,1-.95S192.22,146,192.09,146.57Z" style="fill: rgb(38, 50, 56); transform-origin: 191.344px 146.46px;" id="elfbonqskgmvw" class="animable"></path><path d="M185.17,145.08c-.13.61-.56,1-1,.95s-.62-.65-.48-1.26.56-1,1-1S185.31,144.47,185.17,145.08Z" style="fill: rgb(38, 50, 56); transform-origin: 184.43px 144.902px;" id="elgaefb0raf8w" class="animable"></path><path d="M187.69,145.87a22.47,22.47,0,0,1-4.06,4.59,3.65,3.65,0,0,0,2.81,1.19Z" style="fill: rgb(237, 137, 62); transform-origin: 185.66px 148.761px;" id="el1jfygk8zmwz" class="animable"></path><path d="M195.09,144.22h.18a.39.39,0,0,0,.18-.49,3.69,3.69,0,0,0-2.6-2.12.37.37,0,1,0-.11.73h0a2.94,2.94,0,0,1,2,1.7A.42.42,0,0,0,195.09,144.22Z" style="fill: rgb(38, 50, 56); transform-origin: 193.939px 142.911px;" id="ela7g8jvza5r" class="animable"></path><path d="M183.09,141.71a.37.37,0,0,0,.32-.14,2.91,2.91,0,0,1,2.35-1.19.37.37,0,0,0,.4-.34.36.36,0,0,0-.34-.39,3.66,3.66,0,0,0-3,1.47.36.36,0,0,0,0,.5h0A.36.36,0,0,0,183.09,141.71Z" style="fill: rgb(38, 50, 56); transform-origin: 184.44px 140.68px;" id="elhzq1n6j4s2" class="animable"></path><path d="M184.77,143.88l-1.46-.75S183.87,144.5,184.77,143.88Z" style="fill: rgb(38, 50, 56); transform-origin: 184.04px 143.586px;" id="elgv71lswhtd" class="animable"></path><path d="M191.82,145.45l-1.46-.75S190.92,146.06,191.82,145.45Z" style="fill: rgb(38, 50, 56); transform-origin: 191.09px 145.154px;" id="elglffkroey16" class="animable"></path><path d="M211.64,140.47c0,.66-.4.94-1,1-1.64.11-4.73-1.58-4.73-1.58a12,12,0,0,1-.34,9.41c-.85,2-2,3.39-3,3.72a1,1,0,0,1-.71,0c-1.05-.42-2.08.17-3,.63s-.11-3.31-.11-3.31a20.2,20.2,0,0,1-4.53-7.06,8.77,8.77,0,0,1-.32-1.21c-.42-2.24.29-3.23-1-3.72-2.4-.9-2.56,6.37-4.41,3.49s2.07-5.72,2.07-5.72c-2-.91-4.25,1.47-6.07,3.55-.08.11-.18.22-.26.32-.53.61-1,1.18-1.43,1.61-1.06,1.08-2.1,1.27-1.73-.79,3.35-18.5,23.66-7.33,23.66-7.33s4.73-5.69,6.44-2.38S206,137,206,137,211.64,138,211.64,140.47Z" style="fill: rgb(38, 50, 56); transform-origin: 196.317px 141.877px;" id="elic7zkfzh1iq" class="animable"></path><path d="M206.48,154.75a7.4,7.4,0,0,1-5.14,2.19c-2.57,0-3.17-2.45-1.89-4.52,1.15-1.86,3.88-4.11,6.18-3.13S208.13,153,206.48,154.75Z" style="fill: rgb(255, 181, 115); transform-origin: 203.181px 152.996px;" id="elnr6cb2ljmwa" class="animable"></path><path d="M187.68,154.6a6.17,6.17,0,0,1-1.13-.1.2.2,0,0,1-.16-.22h0a.2.2,0,0,1,.23-.16,5.33,5.33,0,0,0,4.63-1.29.2.2,0,0,1,.28,0,.19.19,0,0,1,0,.28A5.55,5.55,0,0,1,187.68,154.6Z" style="fill: rgb(38, 50, 56); transform-origin: 188.99px 153.687px;" id="elnnt60mfvj6m" class="animable"></path><g id="eligjkvvx0e7"><path d="M202.36,192a20.92,20.92,0,0,1,1.57,7.73l-2.48-3.53S201.77,194.52,202.36,192Z" style="opacity: 0.2; isolation: isolate; transform-origin: 202.69px 195.865px;" class="animable" id="el9l442fgc6rm"></path></g><path d="M169,228,139.78,391.14l10.52,3.6c7.95-21.18,14.24-40.24,19.21-57.18,2.36-8,3.31-15.6,5.11-22.69,2.15-8.42,5-16.17,6.51-23.24,7.71-37,7.09-55.61,7.09-55.61v-8Z" style="fill: rgb(38, 50, 56); transform-origin: 164.006px 311.37px;" id="el8h1ewhz7k1e" class="animable"></path><g id="elzp8n4gv76"><path d="M185.15,255.52l.69,9.35c-1.05,7.47-2.55,16.39-4.71,26.76-.7,3.36-1.73,6.89-2.84,10.56-1.3-23.73,4.13-52.57,4.13-52.57Z" style="opacity: 0.3; transform-origin: 181.964px 275.905px;" class="animable" id="elomtg9rcz1hd"></path></g><path d="M180.51,230.46,185,399.76l11,.84c3-19.35,5.29-36.91,6.9-52.72,1-10.33.72-19.91,1.29-28.76,1-16.38,2.49-30.25,2.41-41.7-.19-28.22-1.8-31.3-2.8-41.69-.18-1.93,0-7.74,0-7.74H180.51Z" style="fill: rgb(38, 50, 56); transform-origin: 193.557px 314.295px;" id="el2h84dwe6rm2" class="animable"></path><g id="elj20ugpmyjw"><path d="M206.54,277.41c.07,11.45-1.36,25.33-2.42,41.71-.57,8.85-.24,18.43-1.29,28.76-1.61,15.81-3.85,33.38-6.9,52.73l-11-.85-3-112.45c-.26,1.41-.57,2.84-.87,4.32-1.47,7.07-4.37,14.82-6.51,23.25-1.8,7.08-2.75,14.64-5.11,22.68-5,16.94-11.26,36-19.22,57.18l-10.51-3.6L169,228h34.69s-.18,5.82,0,7.74C204.73,246.11,206.35,249.2,206.54,277.41Z" style="fill: rgb(255, 255, 255); opacity: 0.2; transform-origin: 173.126px 314.305px;" class="animable" id="el7v0ro836kj"></path></g><polygon points="197.46 397.68 183.95 396.84 183.95 401.16 196.67 402 197.46 397.68" style="fill: rgb(38, 50, 56); transform-origin: 190.705px 399.42px;" id="elz8ojjwlo8eh" class="animable"></polygon><path d="M195,229.78c3-.15,5.42-.34,7.11-.5l.22,3.78c-1.75.16-4.21.35-7.24.5Z" style="fill: rgb(38, 50, 56); transform-origin: 198.665px 231.42px;" id="el5dyjdxx2hkp" class="animable"></path><path d="M177.44,233.62v-3.79q2.43.1,4.74.15l.24,3.79C180.81,233.74,179.15,233.7,177.44,233.62Z" style="fill: rgb(38, 50, 56); transform-origin: 179.93px 231.8px;" id="el42n03h3hiwq" class="animable"></path><path d="M184.24,230c3.1,0,6,0,8.53-.13l.26,3.78c-2.28.08-4.78.14-7.48.14h-1.26Z" style="fill: rgb(38, 50, 56); transform-origin: 188.635px 231.83px;" id="el48xirt02svt" class="animable"></path><path d="M170.13,229.34c1.91.17,3.8.31,5.64.41v3.79q-3.12-.16-6.38-.47Z" style="fill: rgb(38, 50, 56); transform-origin: 172.58px 231.44px;" id="elz9xfhfz6voj" class="animable"></path><polygon points="152.44 392.92 139.46 389.08 138.49 393.29 150.71 396.95 152.44 392.92" style="fill: rgb(38, 50, 56); transform-origin: 145.465px 393.015px;" id="eleazjvfdk484" class="animable"></polygon><path d="M124.34,179.35l5.85-.71a2.14,2.14,0,0,0,1.88-2.62l-3.36-16a1.15,1.15,0,0,0-1.23-.88l-7.2.87a2.16,2.16,0,0,0-1.88,2.63l3.08,14.61A2.65,2.65,0,0,0,124.34,179.35Z" style="fill: #096191; transform-origin: 125.236px 169.249px;" id="elx1cmedmwqsc" class="animable"></path><g id="elf4kcl2h6juk"><path d="M124.34,179.35l5.85-.71a2.14,2.14,0,0,0,1.88-2.62l-3.36-16a1.15,1.15,0,0,0-1.23-.88l-7.2.87a2.16,2.16,0,0,0-1.88,2.63l3.08,14.61A2.65,2.65,0,0,0,124.34,179.35Z" style="opacity: 0.2; transform-origin: 125.236px 169.249px;" class="animable" id="elw06g9p7toyk"></path></g><path d="M124.07,179.69l5.85-.71a2.15,2.15,0,0,0,1.87-2.63l-3.36-15.94a1.13,1.13,0,0,0-1.22-.88l-7.21.87a2.15,2.15,0,0,0-1.87,2.63l3.08,14.61A2.65,2.65,0,0,0,124.07,179.69Z" style="fill: #096191; transform-origin: 124.96px 169.614px;" id="elvyqlcdzw1b" class="animable"></path><g id="el1px10dd4pcl"><path d="M124.12,179.68l5.73-.69a2.21,2.21,0,0,0,1.93-2.69l-3.34-15.84a1.18,1.18,0,0,0-1.29-.92l-7.08.85a2.22,2.22,0,0,0-1.93,2.69l3.06,14.51A2.7,2.7,0,0,0,124.12,179.68Z" style="fill: rgb(255, 255, 255); opacity: 0.5; transform-origin: 124.961px 169.614px;" class="animable" id="elmhytesnchmn"></path></g><g id="elae5m8t4gitd"><path d="M125.53,164.59l2.57-.32A1,1,0,0,0,129,163l-.54-2.6a1.18,1.18,0,0,0-1.26-.9l-2.65.32a1,1,0,0,0-.89,1.25l.54,2.51A1.25,1.25,0,0,0,125.53,164.59Z" style="fill: rgb(255, 255, 255); opacity: 0.3; transform-origin: 126.333px 162.044px;" class="animable" id="elvqh8ilz07gj"></path></g><path d="M125.72,164.34l2.33-.28a1,1,0,0,0,.89-1.24l-.49-2.31a1.26,1.26,0,0,0-1.35-1l-2.33.28a1,1,0,0,0-.89,1.25l.49,2.3A1.25,1.25,0,0,0,125.72,164.34Z" style="fill: rgb(38, 50, 56); transform-origin: 126.409px 161.925px;" id="elv0lohln3mr" class="animable"></path><g id="ell7byl54w1u8"><path d="M125.72,164.34l2.33-.28a1,1,0,0,0,.89-1.24l-.49-2.31a1.26,1.26,0,0,0-1.35-1l-2.33.28a1,1,0,0,0-.89,1.25l.49,2.3A1.25,1.25,0,0,0,125.72,164.34Z" style="fill: rgb(255, 255, 255); opacity: 0.1; transform-origin: 126.409px 161.925px;" class="animable" id="elt39wkid1qdh"></path></g><path d="M123.82,170.07a1.33,1.33,0,0,0,1.44,1,1.08,1.08,0,0,0,.94-1.32,1.33,1.33,0,0,0-1.44-1A1.08,1.08,0,0,0,123.82,170.07Z" style="fill: rgb(255, 255, 255); transform-origin: 125.01px 169.91px;" id="el4zvua2wax7h" class="animable"></path><path d="M169.28,206.59c-1.2,1.77-7.28.57-7.28.57l-1.3-7.54,7.47,3Z" style="fill: rgb(255, 181, 115); transform-origin: 164.99px 203.589px;" id="elvh27p1f1bz" class="animable"></path><path d="M162.2,199.23l1.17,7.83-4.5.68a1,1,0,0,1-1.06-.78l-1.71-5.61a.51.51,0,0,1,.37-.61Z" style="fill: rgb(255, 181, 115); transform-origin: 159.728px 203.487px;" id="el4xs8naj1mzs" class="animable"></path><path d="M160.2,202.79l2.56.45,2.42-1.82-.94-.67a3.17,3.17,0,0,1-1.25-1.88,13.66,13.66,0,0,1-.32-2.42v-.28a1.11,1.11,0,0,0-.94-.95l-.63.47a6.32,6.32,0,0,0-.17,2.55l-.1,1.31-1,.45Z" style="fill: rgb(255, 181, 115); transform-origin: 162.505px 199.23px;" id="elnkidyovy84" class="animable"></path><path d="M209.61,176.75l-15,20.68L167,202.86v4.53s25.95,1.92,31.77-1.48,15.61-24,15.61-24Z" style="fill: rgb(255, 181, 115); transform-origin: 190.69px 192.34px;" id="el0zmo6m8e7oi" class="animable"></path><path d="M212.47,176.24c3.53,4.18,2.49,14.52-2.6,21.1L197.44,190s7.29-12.31,11.32-14.73C210.47,174.27,211.17,174.71,212.47,176.24Z" style="fill: rgb(38, 50, 56); transform-origin: 205.993px 186.037px;" id="el8okpmffrkh7" class="animable"></path><path d="M198,130.9a9.24,9.24,0,0,1,4.42-4.41,6.36,6.36,0,0,1,.36,3.06c1.69.35,3.11.61,4.81,1s3.77.92,4.44,2.58a20,20,0,0,1-6.28,6.34c-1.79-2-3.71-4.36-4.22-7l-.17.5C200.17,132.86,198.88,131.56,198,130.9Z" style="fill: #096191; transform-origin: 205.015px 132.98px;" id="ell22jmorjo4c" class="animable"></path></g><g id="freepik--Icons--inject-195" class="animable" style="transform-origin: 226.1px 195.257px;"><path d="M242.35,94.85l-2.94,1.2-.07,0-1.91-2.63c-5.89-8.4-12.64-17.72-4.46-21.91,5.68-2.92,10.13,2.23,12.24,5.37,3.46-1.56,11.14-6.54,14.28,2.62C262.11,87.16,251.78,90.8,242.35,94.85Z" style="fill: #096191; transform-origin: 244.543px 83.3473px;" id="eldslp20pns6i" class="animable"></path><g id="elt1nppoz83om"><path d="M232.72,74.14a.83.83,0,1,1-.09,0Z" style="fill: rgb(255, 255, 255); opacity: 0.5; transform-origin: 232.675px 74.9694px;" class="animable" id="ellpnzq4a21uk"></path></g><g id="elimzcmhnhtoo"><path d="M233.46,83.75c-1.74-1.87,1.51-6.06-1-7.11C230.36,77,231.31,81.43,233.46,83.75Z" style="fill: rgb(255, 255, 255); opacity: 0.5; transform-origin: 232.372px 80.195px;" class="animable" id="el9s5cyjhfpxv"></path></g><path d="M228.53,109.56l-1.6.65,0,0-1-1.43c-3.21-4.58-6.88-9.65-2.43-11.93,3.09-1.59,5.52,1.21,6.67,2.92,1.88-.85,6.06-3.56,7.77,1.43C239.29,105.37,233.66,107.35,228.53,109.56Z" style="fill: #096191; transform-origin: 229.791px 103.294px;" id="elybisqv8kb8o" class="animable"></path><g id="elfmz1xtiec5k"><path d="M223.28,98.29a.46.46,0,0,1,.44.6.44.44,0,1,1-.49-.6Z" style="fill: rgb(255, 255, 255); opacity: 0.5; transform-origin: 223.308px 98.726px;" class="animable" id="elq0ay3p9jbic"></path></g><g id="ellteo93h8cm8"><path d="M223.68,103.52c-.94-1,.83-3.31-.53-3.88C222,99.81,222.52,102.25,223.68,103.52Z" style="fill: rgb(255, 255, 255); opacity: 0.5; transform-origin: 223.096px 101.58px;" class="animable" id="eln5knxfzay0n"></path></g><g id="elqp9sz60xbbi"><g style="opacity: 0.4; transform-origin: 240.671px 90.4273px;" class="animable" id="el54i1j8pot4k"><path d="M242.35,94.85l-2.94,1.2-.07,0-1.91-2.63c-5.89-8.4-12.64-17.72-4.46-21.91,5.68-2.92,10.13,2.23,12.24,5.37,3.46-1.56,11.14-6.54,14.28,2.62C262.11,87.16,251.78,90.8,242.35,94.85Z" style="fill: rgb(255, 255, 255); transform-origin: 244.543px 83.3473px;" id="ela599e6089mc" class="animable"></path><g id="el84eye35ij7w"><path d="M232.72,74.14a.83.83,0,1,1-.09,0Z" style="fill: rgb(255, 255, 255); opacity: 0.5; transform-origin: 232.675px 74.9694px;" class="animable" id="el2rmvjzix43k"></path></g><g id="eluv39g20qr7d"><path d="M233.46,83.75c-1.74-1.87,1.51-6.06-1-7.11C230.36,77,231.31,81.43,233.46,83.75Z" style="fill: rgb(255, 255, 255); opacity: 0.5; transform-origin: 232.372px 80.195px;" class="animable" id="elobiyawv0vha"></path></g><path d="M228.53,109.56l-1.6.65,0,0-1-1.43c-3.21-4.58-6.88-9.65-2.43-11.93,3.09-1.59,5.52,1.21,6.67,2.92,1.88-.85,6.06-3.56,7.77,1.43C239.29,105.37,233.66,107.35,228.53,109.56Z" style="fill: rgb(255, 255, 255); transform-origin: 229.791px 103.294px;" id="elb1ip778e6u" class="animable"></path><g id="eldwb2wnrrh4u"><path d="M223.28,98.29a.46.46,0,0,1,.44.6.44.44,0,1,1-.49-.6Z" style="fill: rgb(255, 255, 255); opacity: 0.5; transform-origin: 223.308px 98.726px;" class="animable" id="elf0eqhyea78"></path></g><g id="el3eordktkocv"><path d="M223.68,103.52c-.94-1,.83-3.31-.53-3.88C222,99.81,222.52,102.25,223.68,103.52Z" style="fill: rgb(255, 255, 255); opacity: 0.5; transform-origin: 223.096px 101.58px;" class="animable" id="el3wvhhrn5rvy"></path></g></g></g><path d="M136.45,276.22l5.39,16.15a3.36,3.36,0,0,0,4,2.15l3.55-1a3,3,0,0,0,2-3.83l-5.38-16.15a3.37,3.37,0,0,0-4-2.15l-3.55,1A3,3,0,0,0,136.45,276.22Z" style="fill: #096191; transform-origin: 143.92px 282.956px;" id="el3zlt6y4b5vj" class="animable"></path><g id="elvudqvmqc6em"><path d="M136.45,276.22l5.39,16.15a3.36,3.36,0,0,0,4,2.15l3.55-1a3,3,0,0,0,2-3.83l-5.38-16.15a3.37,3.37,0,0,0-4-2.15l-3.55,1A3,3,0,0,0,136.45,276.22Z" style="fill: rgb(255, 255, 255); opacity: 0.5; transform-origin: 143.92px 282.956px;" class="animable" id="elimtmr4b6ch8"></path></g><path d="M109,283.93l7.1,13.31a4.86,4.86,0,0,0,1.65,1.78l1.77,1.13a4.8,4.8,0,0,0,3.82.6l14.54-4A3.66,3.66,0,0,0,140.4,292l-5-15.09a5.36,5.36,0,0,0-1.93-2.62l-9-6.59-2.19-6.56-4.13,1.14a3.5,3.5,0,0,0-2.57,4l.7,4.44a3.81,3.81,0,0,0,.79,1.78l3.83,4.81-10.39,2.87Z" style="fill: #096191; transform-origin: 124.803px 281.025px;" id="elel8b9jbspii" class="animable"></path><g id="elkmt4ein420r"><path d="M109,283.93l7.1,13.31a4.86,4.86,0,0,0,1.65,1.78l1.77,1.13a4.8,4.8,0,0,0,3.82.6l14.54-4A3.66,3.66,0,0,0,140.4,292l-5-15.09a5.36,5.36,0,0,0-1.93-2.62l-9-6.59-2.19-6.56-4.13,1.14a3.5,3.5,0,0,0-2.57,4l.7,4.44a3.81,3.81,0,0,0,.79,1.78l3.83,4.81-10.39,2.87Z" style="fill: rgb(255, 255, 255); opacity: 0.5; transform-origin: 124.803px 281.025px;" class="animable" id="el4zn9c9p1mwa"></path></g><path d="M91.23,309l-3.9-11.69a2.43,2.43,0,0,0-2.92-1.56l-2.57.71a2.14,2.14,0,0,0-1.48,2.77l3.9,11.69a2.43,2.43,0,0,0,2.92,1.56l2.57-.71A2.14,2.14,0,0,0,91.23,309Z" style="fill: #096191; transform-origin: 85.795px 304.115px;" id="eldr6sy4qoj3" class="animable"></path><g id="el0pxfw63tcb1"><path d="M91.23,309l-3.9-11.69a2.43,2.43,0,0,0-2.92-1.56l-2.57.71a2.14,2.14,0,0,0-1.48,2.77l3.9,11.69a2.43,2.43,0,0,0,2.92,1.56l2.57-.71A2.14,2.14,0,0,0,91.23,309Z" style="fill: rgb(255, 255, 255); opacity: 0.5; transform-origin: 85.795px 304.115px;" class="animable" id="eld6xheww9186"></path></g><path d="M111.1,303.37,106,293.73a3.54,3.54,0,0,0-1.2-1.29l-1.28-.82a3.48,3.48,0,0,0-2.77-.43L90.19,294.1a2.64,2.64,0,0,0-1.82,3.42L92,308.45a3.82,3.82,0,0,0,1.39,1.9l6.54,4.77,1.58,4.75,3-.82a2.54,2.54,0,0,0,1.87-2.87l-.51-3.22a2.78,2.78,0,0,0-.57-1.29l-2.77-3.48,7.52-2.08Z" style="fill: #096191; transform-origin: 99.6617px 305.471px;" id="el3pb7d3e9ct5" class="animable"></path><path d="M111.1,303.37,106,293.73a3.54,3.54,0,0,0-1.2-1.29l-1.28-.82a3.48,3.48,0,0,0-2.77-.43L90.19,294.1a2.64,2.64,0,0,0-1.82,3.42L92,308.45a3.82,3.82,0,0,0,1.39,1.9l6.54,4.77,1.58,4.75,3-.82a2.54,2.54,0,0,0,1.87-2.87l-.51-3.22a2.78,2.78,0,0,0-.57-1.29l-2.77-3.48,7.52-2.08Z" style="fill: #096191; transform-origin: 99.6617px 305.471px;" id="elsj9pr8cgpk" class="animable"></path><g id="elkg97ggqngvr"><g style="opacity: 0.5; transform-origin: 115.894px 295.579px;" class="animable" id="elbu63ks02ha"><path d="M136.45,276.22l5.39,16.15a3.36,3.36,0,0,0,4,2.15l3.55-1a3,3,0,0,0,2-3.83l-5.38-16.15a3.37,3.37,0,0,0-4-2.15l-3.55,1A3,3,0,0,0,136.45,276.22Z" style="fill: rgb(255, 255, 255); transform-origin: 143.92px 282.956px;" id="el6xzywx1ov7u" class="animable"></path><path d="M91.23,309l-3.9-11.69a2.43,2.43,0,0,0-2.92-1.56l-2.57.71a2.14,2.14,0,0,0-1.48,2.77l3.9,11.69a2.43,2.43,0,0,0,2.92,1.56l2.57-.71A2.14,2.14,0,0,0,91.23,309Z" style="fill: rgb(255, 255, 255); transform-origin: 85.795px 304.115px;" id="el067lekgsoe2h" class="animable"></path><path d="M111.1,303.37,106,293.73a3.54,3.54,0,0,0-1.2-1.29l-1.28-.82a3.48,3.48,0,0,0-2.77-.43L90.19,294.1a2.64,2.64,0,0,0-1.82,3.42L92,308.45a3.82,3.82,0,0,0,1.39,1.9l6.54,4.77,1.58,4.75,3-.82a2.54,2.54,0,0,0,1.87-2.87l-.51-3.22a2.78,2.78,0,0,0-.57-1.29l-2.77-3.48,7.52-2.08Z" style="fill: rgb(255, 255, 255); transform-origin: 99.6617px 305.471px;" id="el3gf0w9jaluc" class="animable"></path><path d="M111.1,303.37,106,293.73a3.54,3.54,0,0,0-1.2-1.29l-1.28-.82a3.48,3.48,0,0,0-2.77-.43L90.19,294.1a2.64,2.64,0,0,0-1.82,3.42L92,308.45a3.82,3.82,0,0,0,1.39,1.9l6.54,4.77,1.58,4.75,3-.82a2.54,2.54,0,0,0,1.87-2.87l-.51-3.22a2.78,2.78,0,0,0-.57-1.29l-2.77-3.48,7.52-2.08Z" style="fill: rgb(255, 255, 255); transform-origin: 99.6617px 305.471px;" id="elrlt8nndjl6" class="animable"></path></g></g><polygon points="316.68 124.81 316.68 124.81 316.68 124.81 316.68 124.81" style="fill: rgb(38, 50, 56); transform-origin: 316.68px 124.81px;" id="eljye5cx6t52f" class="animable"></polygon><path d="M317.14,125.22l-.46-.41A.8.8,0,0,1,317.14,125.22Z" style="fill: rgb(38, 50, 56); transform-origin: 316.91px 125.015px;" id="elsyla36m4o09" class="animable"></path><path d="M316.35,124.76a.91.91,0,0,1,.33,0Z" style="fill: rgb(38, 50, 56); transform-origin: 316.515px 124.752px;" id="elgcdha8l8dah" class="animable"></path><path d="M316.4,128.47l-1.31-2.11-1.21-2h0l.24,0a.82.82,0,0,1,.5.42l.61,1.24Z" style="fill: rgb(38, 50, 56); transform-origin: 315.14px 126.415px;" id="el2t8aaxzgzxj" class="animable"></path><path d="M307.48,159.59l-3.64,1.91-1.36.72a.79.79,0,0,1-.35.09l2.12-4.69.23.14Z" style="fill: rgb(38, 50, 56); transform-origin: 304.805px 159.965px;" id="el3yh8k8izzf8" class="animable"></path><path d="M333.52,139.67l-3.11,3h0l-5.8,5.66a.8.8,0,0,0-.24.73l1.52,8.83h0l.58,3.44a.82.82,0,0,1-1.19.87l-.59-.31-4.05-2.13-3-1.57-.06,0-1.77-.93-1.57-.82a.81.81,0,0,0-.77,0l-2.75,1.44-2.65,1.4-.61.32-1.25.65-2.39,1.26-1.36.72a.79.79,0,0,1-.35.09.83.83,0,0,1-.85-1l.13-.74,2-11.53a.85.85,0,0,0-.24-.73l-8.91-8.68a.83.83,0,0,1,.46-1.41L307,136.47a.83.83,0,0,0,.62-.45l5.51-11.16a.73.73,0,0,1,.16-.22.81.81,0,0,1,.39-.22l.19,0h0l.16,0,.08,0a.82.82,0,0,1,.5.42l.61,1.24.73,1.47.44.9h0l1.12,2.26.81,1.65h0l1.8,3.64a.83.83,0,0,0,.62.45l7.25,1.05,3.79.55,1.27.19A.83.83,0,0,1,333.52,139.67Z" style="fill: #096191; transform-origin: 313.889px 143.37px;" id="elrdql8qf59f" class="animable"></path><path d="M336,140l-6.81,6.63-2.1,2.05a.83.83,0,0,0-.24.73l.47,3.51,1.29,9.58a.82.82,0,0,1-1.19.87l-2.77-1.47-4.05-2.14-3-1.58,3,1.57,4.05,2.13.59.31a.82.82,0,0,0,1.19-.87l-.58-3.44h0l-1.52-8.83a.8.8,0,0,1,.24-.73l5.8-5.66,3.11-3a.83.83,0,0,0-.46-1.41l-1.27-.19-3.79-.55-7.25-1.05a.83.83,0,0,1-.62-.45l-1.8-3.64h0l-.81-1.65-1.12-2.26h0l-.44-.9h0l-.73-1.47-.61-1.24a.82.82,0,0,0-.5-.42l2.23.32.33,0,.08.07.38.34,1.32,2.67.25.5.5,1,3.44,7a.83.83,0,0,0,.62.45l4.73.69,3.79.55,3.79.55A.83.83,0,0,1,336,140Z" style="fill: #096191; transform-origin: 325.172px 143.947px;" id="el0klbo5rqyk6" class="animable"></path><path d="M315.83,157.25,310,160.31h0l-2.76,1.45-1.71.9,0,0a1.22,1.22,0,0,1-.82,0l-.05,0-2.51-.39h0a.79.79,0,0,0,.35-.09l1.36-.72,2.39-1.26,1.25-.65.61-.32,2.65-1.4,2.75-1.44a.81.81,0,0,1,.77,0Z" style="fill: #096191; transform-origin: 308.99px 159.512px;" id="el3e0bbfo4zgj" class="animable"></path><g id="elg1wpty164cb"><path d="M336,140l-6.81,6.63-2.1,2.05a.83.83,0,0,0-.24.73l.47,3.51,1.29,9.58a.82.82,0,0,1-1.19.87l-2.77-1.47-4.05-2.14-3-1.58,3,1.57,4.05,2.13.59.31a.82.82,0,0,0,1.19-.87l-.58-3.44h0l-1.52-8.83a.8.8,0,0,1,.24-.73l5.8-5.66,3.11-3a.83.83,0,0,0-.46-1.41l-1.27-.19-3.79-.55-7.25-1.05a.83.83,0,0,1-.62-.45l-1.8-3.64h0l-.81-1.65-1.12-2.26h0l-.44-.9h0l-.73-1.47-.61-1.24a.82.82,0,0,0-.5-.42l2.23.32.33,0,.08.07.38.34,1.32,2.67.25.5.5,1,3.44,7a.83.83,0,0,0,.62.45l4.73.69,3.79.55,3.79.55A.83.83,0,0,1,336,140Z" style="fill: rgb(255, 255, 255); opacity: 0.3; transform-origin: 325.172px 143.947px;" class="animable" id="eln07ky9wullg"></path></g><g id="el5xsh5k46ym2"><path d="M315.83,157.25,310,160.31h0l-2.76,1.45-1.71.9,0,0a1.22,1.22,0,0,1-.82,0l-.05,0-2.51-.39h0a.79.79,0,0,0,.35-.09l1.36-.72,2.39-1.26,1.25-.65.61-.32,2.65-1.4,2.75-1.44a.81.81,0,0,1,.77,0Z" style="fill: rgb(255, 255, 255); opacity: 0.3; transform-origin: 308.99px 159.512px;" class="animable" id="elxt6ile21vw"></path></g><g id="el1j7zdto6aofi"><path d="M316,127.57l0,.13L306.59,159l-.36,1.2-2.39,1.26-1.36.72a.79.79,0,0,1-.35.09.83.83,0,0,1-.85-1l.13-.74,11.89-36a.81.81,0,0,1,.39-.22H314l.08,0a.82.82,0,0,1,.5.42l.61,1.24Z" style="fill: rgb(255, 255, 255); opacity: 0.4; transform-origin: 308.631px 143.29px;" class="animable" id="elak009yho407"></path></g><g id="elvk491og2pdd"><polygon points="318.33 132.38 318.33 132.38 310.74 157.87 308.08 159.27 317.52 130.73 318.33 132.38" style="fill: rgb(255, 255, 255); opacity: 0.2; transform-origin: 313.205px 145px;" class="animable" id="eltjzec4jify"></polygon></g><g id="el9ojm0i4rlth"><g style="opacity: 0.5; transform-origin: 315.51px 126.265px;" class="animable" id="ell01e4sadmua"><polygon points="316.68 124.66 316.68 124.66 316.68 124.66 316.68 124.66" style="fill: rgb(255, 255, 255); transform-origin: 316.68px 124.66px;" id="elw5bry4nv7r7" class="animable"></polygon><path d="M317.14,125.07l-.46-.41A.77.77,0,0,1,317.14,125.07Z" style="fill: rgb(255, 255, 255); transform-origin: 316.91px 124.865px;" id="elyn55ngyfxan" class="animable"></path><path d="M316.35,124.61a.74.74,0,0,1,.33,0Z" style="fill: rgb(255, 255, 255); transform-origin: 316.515px 124.601px;" id="elom6tbdyphm" class="animable"></path><path d="M316.4,128.32l-1.31-2.11-1.21-2h0l.24,0a.84.84,0,0,1,.5.43l.61,1.23Z" style="fill: rgb(255, 255, 255); transform-origin: 315.14px 126.265px;" id="el5fur6os4obr" class="animable"></path></g></g><g id="elg0hnnzyrwcr"><path d="M333.56,139.44l-3.11,3h0l-5.8,5.66a.8.8,0,0,0-.24.73l1.51,8.83h0l.59,3.43a.82.82,0,0,1-1.2.87l-.58-.3-4.05-2.14-3-1.56-.06,0-1.77-.93-1.57-.83a.81.81,0,0,0-.77,0l-2.75,1.45-2.66,1.4-.6.31-1.25.66-2.39,1.26-1.36.71a1,1,0,0,1-.35.1.83.83,0,0,1-.85-1l.13-.73,2-11.53a.85.85,0,0,0-.24-.73l-8.91-8.69a.82.82,0,0,1,.46-1.4l12.31-1.79a.82.82,0,0,0,.62-.46l5.51-11.15a.73.73,0,0,1,.16-.23.79.79,0,0,1,.39-.21.62.62,0,0,1,.19,0h.16l.08,0a.81.81,0,0,1,.5.43l.61,1.23.73,1.48.44.9h0l1.12,2.26.81,1.65h0l1.79,3.63a.83.83,0,0,0,.63.46L328,137.3l3.8.55,1.27.19A.82.82,0,0,1,333.56,139.44Z" style="fill: rgb(255, 255, 255); opacity: 0.4; transform-origin: 313.918px 143.127px;" class="animable" id="elw0jimrjwef"></path></g><polygon points="360.26 124.55 360.26 124.55 360.26 124.55 360.26 124.55" style="fill: rgb(38, 50, 56); transform-origin: 360.26px 124.55px;" id="elg7qoarlejdh" class="animable"></polygon><path d="M360.53,124.8l-.27-.25A.47.47,0,0,1,360.53,124.8Z" style="fill: rgb(38, 50, 56); transform-origin: 360.395px 124.675px;" id="el62te2z7hwb7" class="animable"></path><path d="M360.07,124.52a.63.63,0,0,1,.19,0Z" style="fill: rgb(38, 50, 56); transform-origin: 360.165px 124.516px;" id="el961w2eolgzl" class="animable"></path><path d="M360.09,126.73l-.77-1.25-.72-1.17h0l.14,0a.52.52,0,0,1,.3.25l.36.74Z" style="fill: rgb(38, 50, 56); transform-origin: 359.345px 125.52px;" id="el07dp9t2dyuwb" class="animable"></path><path d="M354.8,145.22l-2.17,1.13-.81.43a.5.5,0,0,1-.21.05l1.27-2.79.13.09Z" style="fill: rgb(38, 50, 56); transform-origin: 353.205px 145.435px;" id="eliuq3gsgnoqo" class="animable"></path><path d="M370.26,133.38l-1.84,1.8h0L365,138.54a.49.49,0,0,0-.14.43l.9,5.25h0l.35,2a.49.49,0,0,1-.71.52l-.35-.19-2.41-1.26-1.77-.93,0,0-1.05-.55-.94-.49a.45.45,0,0,0-.45,0l-1.64.86-1.58.83-.35.19-.75.38-1.42.75-.81.43a.5.5,0,0,1-.21.05.49.49,0,0,1-.5-.57l.08-.44,1.17-6.85a.46.46,0,0,0-.14-.43l-5.29-5.16a.49.49,0,0,1,.27-.84l7.32-1.06a.49.49,0,0,0,.37-.27l3.27-6.63a.38.38,0,0,1,.09-.13.47.47,0,0,1,.24-.13h.25a.52.52,0,0,1,.3.25l.36.74.43.87.26.54h0l.67,1.34.48,1h0l1.07,2.16a.47.47,0,0,0,.37.27l4.3.63,2.26.32.75.11A.49.49,0,0,1,370.26,133.38Z" style="fill: #096191; transform-origin: 358.635px 135.555px;" id="elq35uulhvsw" class="animable"></path><path d="M371.76,133.59l-4,3.94-1.25,1.22a.49.49,0,0,0-.14.44l.28,2.08.76,5.69a.49.49,0,0,1-.71.52l-1.64-.87-2.41-1.28-1.77-.93,1.77.93,2.41,1.26.35.19a.49.49,0,0,0,.71-.52l-.35-2h0l-.9-5.25a.49.49,0,0,1,.14-.43l3.45-3.36,1.84-1.8a.49.49,0,0,0-.27-.84l-.75-.11-2.26-.32-4.3-.63a.47.47,0,0,1-.37-.27l-1.07-2.16h0l-.48-1-.67-1.34h0l-.26-.54h0l-.43-.87-.36-.74a.52.52,0,0,0-.3-.25l1.33.19.19,0,.05,0,.22.21.79,1.58.14.3.3.61,2.05,4.14a.48.48,0,0,0,.37.26l2.81.41,2.25.33,2.25.33A.49.49,0,0,1,371.76,133.59Z" style="fill: #096191; transform-origin: 365.369px 135.943px;" id="elr8slnj8dg7j" class="animable"></path><path d="M359.76,143.83l-3.46,1.81h0l-1.63.86-1,.54h0a.72.72,0,0,1-.48,0h0l-1.5-.23h0a.5.5,0,0,0,.21-.05l.81-.43,1.42-.75.75-.38.35-.19,1.58-.83,1.64-.86a.45.45,0,0,1,.45,0Z" style="fill: #096191; transform-origin: 355.725px 145.17px;" id="elqw09ip1hpc" class="animable"></path><g id="ell57m9lg88zq"><path d="M371.76,133.59l-4,3.94-1.25,1.22a.49.49,0,0,0-.14.44l.28,2.08.76,5.69a.49.49,0,0,1-.71.52l-1.64-.87-2.41-1.28-1.77-.93,1.77.93,2.41,1.26.35.19a.49.49,0,0,0,.71-.52l-.35-2h0l-.9-5.25a.49.49,0,0,1,.14-.43l3.45-3.36,1.84-1.8a.49.49,0,0,0-.27-.84l-.75-.11-2.26-.32-4.3-.63a.47.47,0,0,1-.37-.27l-1.07-2.16h0l-.48-1-.67-1.34h0l-.26-.54h0l-.43-.87-.36-.74a.52.52,0,0,0-.3-.25l1.33.19.19,0,.05,0,.22.21.79,1.58.14.3.3.61,2.05,4.14a.48.48,0,0,0,.37.26l2.81.41,2.25.33,2.25.33A.49.49,0,0,1,371.76,133.59Z" style="fill: rgb(255, 255, 255); opacity: 0.3; transform-origin: 365.369px 135.943px;" class="animable" id="elp1kp0erukjk"></path></g><g id="el6nfkl8u4zp7"><path d="M359.76,143.83l-3.46,1.81h0l-1.63.86-1,.54h0a.72.72,0,0,1-.48,0h0l-1.5-.23h0a.5.5,0,0,0,.21-.05l.81-.43,1.42-.75.75-.38.35-.19,1.58-.83,1.64-.86a.45.45,0,0,1,.45,0Z" style="fill: rgb(255, 255, 255); opacity: 0.3; transform-origin: 355.725px 145.17px;" class="animable" id="el4hb18wu60av"></path></g><g id="el0l81rr2v8ux"><path d="M359.83,126.19l0,.08-5.54,18.62-.22.71-1.42.75-.81.43a.5.5,0,0,1-.21.05.49.49,0,0,1-.5-.57l.08-.44,7.06-21.37a.47.47,0,0,1,.24-.13h.25a.52.52,0,0,1,.3.25l.36.74Z" style="fill: rgb(255, 255, 255); opacity: 0.4; transform-origin: 355.477px 135.575px;" class="animable" id="elux1lgl5le1k"></path></g><g id="elr2vz07ps34"><polygon points="361.24 129.05 361.24 129.05 356.73 144.2 355.15 145.03 360.76 128.07 361.24 129.05" style="fill: rgb(255, 255, 255); opacity: 0.2; transform-origin: 358.195px 136.55px;" class="animable" id="elznimsrkrhdg"></polygon></g><g id="el04w0i0854gdg"><g style="opacity: 0.5; transform-origin: 359.565px 125.43px;" class="animable" id="elkb88eeh36c8"><polygon points="360.26 124.46 360.26 124.46 360.26 124.46 360.26 124.46" style="fill: rgb(255, 255, 255); transform-origin: 360.26px 124.46px;" id="elujeucfiqtz" class="animable"></polygon><path d="M360.53,124.71l-.27-.25A.47.47,0,0,1,360.53,124.71Z" style="fill: rgb(255, 255, 255); transform-origin: 360.395px 124.585px;" id="elz2vmkgfoiv" class="animable"></path><path d="M360.07,124.43a.63.63,0,0,1,.19,0Z" style="fill: rgb(255, 255, 255); transform-origin: 360.165px 124.426px;" id="elv2za8qux7i" class="animable"></path><path d="M360.09,126.64l-.77-1.25-.72-1.17h0l.14,0a.52.52,0,0,1,.3.25l.36.74Z" style="fill: rgb(255, 255, 255); transform-origin: 359.345px 125.43px;" id="elyhxwcet7hz" class="animable"></path></g></g><g id="elcukxuwsoru"><path d="M370.29,133.25,368.44,135h0L365,138.41a.52.52,0,0,0-.14.43l.9,5.25h0l.35,2a.49.49,0,0,1-.71.51l-.34-.18-2.41-1.26-1.77-.94h0l-1.05-.56-.93-.49a.53.53,0,0,0-.46,0l-1.63.86-1.58.83-.36.19-.74.39-1.42.75-.81.42a.42.42,0,0,1-.21.06.48.48,0,0,1-.5-.57l.07-.44,1.18-6.85a.52.52,0,0,0-.14-.43l-5.3-5.16a.49.49,0,0,1,.27-.84l7.32-1.06a.52.52,0,0,0,.37-.27l3.27-6.63a.73.73,0,0,1,.09-.13.47.47,0,0,1,.24-.13h.25a.49.49,0,0,1,.3.25l.36.73.43.88.27.53h0l.66,1.35.48,1h0l1.07,2.16a.52.52,0,0,0,.37.27L367,132l2.25.33.76.11A.49.49,0,0,1,370.29,133.25Z" style="fill: rgb(255, 255, 255); opacity: 0.4; transform-origin: 358.632px 135.415px;" class="animable" id="el8mv4gnfy0gb"></path></g><polygon points="351.88 155.96 351.88 155.96 351.88 155.96 351.88 155.96" style="fill: rgb(38, 50, 56); transform-origin: 351.88px 155.96px;" id="el29pt72rtzrq" class="animable"></polygon><path d="M352.14,156.19l-.26-.23A.39.39,0,0,1,352.14,156.19Z" style="fill: rgb(38, 50, 56); transform-origin: 352.01px 156.075px;" id="elztolwq5t9d" class="animable"></path><path d="M351.69,155.93a.32.32,0,0,1,.19,0Z" style="fill: rgb(38, 50, 56); transform-origin: 351.785px 155.923px;" id="eld7jb8tjchwc" class="animable"></path><path d="M351.72,158.07l-.76-1.22-.7-1.13h0l.14,0a.47.47,0,0,1,.29.25l.35.71Z" style="fill: rgb(38, 50, 56); transform-origin: 350.99px 156.895px;" id="elep98dz93c3f" class="animable"></path><path d="M346.56,176.06l-2.1,1.1-.79.41a.39.39,0,0,1-.2.06l1.23-2.71.13.08Z" style="fill: rgb(38, 50, 56); transform-origin: 345.015px 176.275px;" id="el0sg0m7njqkw" class="animable"></path><path d="M361.61,164.54l-1.79,1.75h0l-3.36,3.27a.51.51,0,0,0-.14.42l.88,5.11h0l.34,2a.47.47,0,0,1-.69.5l-.34-.17-2.34-1.23-1.73-.91,0,0-1-.53-.91-.48a.49.49,0,0,0-.44,0l-1.59.83-1.54.81-.35.19-.72.37-1.38.73-.79.41a.39.39,0,0,1-.2.06.48.48,0,0,1-.49-.56l.07-.42L344.2,170a.51.51,0,0,0-.14-.42l-5.15-5a.48.48,0,0,1,.26-.81l7.12-1a.45.45,0,0,0,.36-.26l3.18-6.44a.73.73,0,0,1,.09-.13.49.49,0,0,1,.23-.13h.25a.47.47,0,0,1,.29.25l.35.71.42.85.26.52h0l.64,1.31.47,1h0l1,2.1a.45.45,0,0,0,.36.26l4.19.61,2.19.32.74.11A.48.48,0,0,1,361.61,164.54Z" style="fill: #096191; transform-origin: 350.219px 166.74px;" id="el1sl6oqpdui2" class="animable"></path><path d="M363.07,164.75l-3.94,3.83-1.21,1.19a.45.45,0,0,0-.14.42l.27,2,.75,5.54a.47.47,0,0,1-.69.5l-1.6-.85-2.34-1.24-1.73-.91,1.73.91,2.34,1.23.34.17a.47.47,0,0,0,.69-.5l-.34-2h0l-.88-5.11a.51.51,0,0,1,.14-.42l3.36-3.27,1.79-1.75a.48.48,0,0,0-.26-.81l-.74-.11-2.19-.32-4.19-.61a.45.45,0,0,1-.36-.26l-1-2.1h0l-.47-1-.64-1.31h0l-.26-.52h0l-.42-.85-.35-.71a.47.47,0,0,0-.29-.25l1.29.19.19,0,0,0,.22.19.77,1.55.14.29.29.59,2,4a.47.47,0,0,0,.36.26l2.73.4,2.19.32,2.19.32A.48.48,0,0,1,363.07,164.75Z" style="fill: #096191; transform-origin: 356.947px 166.965px;" id="eljkw4nvj8pdm" class="animable"></path><path d="M351.39,174.71,348,176.47h0l-1.59.84-1,.52h0a.69.69,0,0,1-.47,0h0l-1.45-.22h0a.39.39,0,0,0,.2-.06l.79-.41,1.38-.73.72-.37.35-.19,1.54-.81,1.59-.83a.49.49,0,0,1,.44,0Z" style="fill: #096191; transform-origin: 347.44px 176.015px;" id="elhvgukin6ey" class="animable"></path><g id="elz65es1j2b2k"><path d="M363.07,164.75l-3.94,3.83-1.21,1.19a.45.45,0,0,0-.14.42l.27,2,.75,5.54a.47.47,0,0,1-.69.5l-1.6-.85-2.34-1.24-1.73-.91,1.73.91,2.34,1.23.34.17a.47.47,0,0,0,.69-.5l-.34-2h0l-.88-5.11a.51.51,0,0,1,.14-.42l3.36-3.27,1.79-1.75a.48.48,0,0,0-.26-.81l-.74-.11-2.19-.32-4.19-.61a.45.45,0,0,1-.36-.26l-1-2.1h0l-.47-1-.64-1.31h0l-.26-.52h0l-.42-.85-.35-.71a.47.47,0,0,0-.29-.25l1.29.19.19,0,0,0,.22.19.77,1.55.14.29.29.59,2,4a.47.47,0,0,0,.36.26l2.73.4,2.19.32,2.19.32A.48.48,0,0,1,363.07,164.75Z" style="fill: rgb(255, 255, 255); opacity: 0.3; transform-origin: 356.947px 166.965px;" class="animable" id="elpbrul22lk8r"></path></g><g id="elst87sxlcb6"><path d="M351.39,174.71,348,176.47h0l-1.59.84-1,.52h0a.69.69,0,0,1-.47,0h0l-1.45-.22h0a.39.39,0,0,0,.2-.06l.79-.41,1.38-.73.72-.37.35-.19,1.54-.81,1.59-.83a.49.49,0,0,1,.44,0Z" style="fill: rgb(255, 255, 255); opacity: 0.3; transform-origin: 347.44px 176.015px;" class="animable" id="el8v3wlbui0dw"></path></g><g id="el2kny2voybua"><path d="M351.46,157.55l0,.08-5.39,18.11-.21.69-1.38.73-.79.41a.39.39,0,0,1-.2.06.48.48,0,0,1-.49-.56l.07-.42,6.87-20.79a.49.49,0,0,1,.23-.13h.25a.47.47,0,0,1,.29.25l.35.71Z" style="fill: rgb(255, 255, 255); opacity: 0.4; transform-origin: 347.227px 166.68px;" class="animable" id="elpk5j2aks7d"></path></g><g id="el4ti0t3npzw7"><polygon points="352.83 160.33 352.83 160.33 348.45 175.06 346.91 175.87 352.36 159.38 352.83 160.33" style="fill: rgb(255, 255, 255); opacity: 0.2; transform-origin: 349.87px 167.625px;" class="animable" id="eloqgx95te9dd"></polygon></g><g id="elfqom0ga2qe7"><g style="opacity: 0.5; transform-origin: 351.2px 156.825px;" class="animable" id="elg3oaeppn0u"><polygon points="351.88 155.87 351.88 155.87 351.88 155.87 351.88 155.87" style="fill: rgb(255, 255, 255); transform-origin: 351.88px 155.87px;" id="elv67woy1ns5" class="animable"></polygon><path d="M352.14,156.11l-.26-.24A.44.44,0,0,1,352.14,156.11Z" style="fill: rgb(255, 255, 255); transform-origin: 352.01px 155.99px;" id="el9qu70v381vp" class="animable"></path><path d="M351.69,155.84a.63.63,0,0,1,.19,0Z" style="fill: rgb(255, 255, 255); transform-origin: 351.785px 155.836px;" id="el1sl9qa2t3o1" class="animable"></path><path d="M351.72,158l-.76-1.21-.7-1.14h0l.14,0a.5.5,0,0,1,.29.25l.35.71Z" style="fill: rgb(255, 255, 255); transform-origin: 350.99px 156.825px;" id="elydr4t3ch2z8" class="animable"></path></g></g><g id="el73yaagx61en"><path d="M361.63,164.41l-1.79,1.75h0l-3.36,3.27a.47.47,0,0,0-.13.42l.87,5.11h0l.34,2a.47.47,0,0,1-.69.5l-.34-.17L354.19,176l-1.72-.91,0,0-1-.53-.91-.48a.49.49,0,0,0-.44,0l-1.59.83-1.54.81-.34.19-.73.37-1.38.73-.79.41a.36.36,0,0,1-.2.06.48.48,0,0,1-.49-.56l.08-.42,1.14-6.67a.51.51,0,0,0-.14-.42l-5.15-5a.47.47,0,0,1,.27-.81l7.11-1a.48.48,0,0,0,.36-.27l3.18-6.44a.45.45,0,0,1,.1-.13.41.41,0,0,1,.23-.13h.24a.45.45,0,0,1,.29.25l.35.71.42.85.26.52h0l.64,1.31.47.95h0l1,2.1a.5.5,0,0,0,.36.27l4.19.6,2.19.32.74.11A.48.48,0,0,1,361.63,164.41Z" style="fill: rgb(255, 255, 255); opacity: 0.4; transform-origin: 350.299px 166.575px;" class="animable" id="eldoz252h6chk"></path></g></g><defs>     <filter id="active" height="200%">         <feMorphology in="SourceAlpha" result="DILATED" operator="dilate" radius="2"></feMorphology>                <feFlood flood-color="#32DFEC" flood-opacity="1" result="PINK"></feFlood>        <feComposite in="PINK" in2="DILATED" operator="in" result="OUTLINE"></feComposite>        <feMerge>            <feMergeNode in="OUTLINE"></feMergeNode>            <feMergeNode in="SourceGraphic"></feMergeNode>        </feMerge>    </filter>    <filter id="hover" height="200%">        <feMorphology in="SourceAlpha" result="DILATED" operator="dilate" radius="2"></feMorphology>                <feFlood flood-color="#ff0000" flood-opacity="0.5" result="PINK"></feFlood>        <feComposite in="PINK" in2="DILATED" operator="in" result="OUTLINE"></feComposite>        <feMerge>            <feMergeNode in="OUTLINE"></feMergeNode>            <feMergeNode in="SourceGraphic"></feMergeNode>        </feMerge>            <feColorMatrix type="matrix" values="0   0   0   0   0                0   1   0   0   0                0   0   0   0   0                0   0   0   1   0 "></feColorMatrix>    </filter></defs></svg>